<svg width="156" height="50" viewBox="0 0 156 50" fill="none" xmlns="http://www.w3.org/2000/svg">
<path d="M130.197 40H4.729C2.122 40 0 37.872 0 35.267V4.726C0 2.12 2.122 0 4.729 0H130.197C132.803 0 135 2.12 135 4.726V35.267C135 37.872 132.803 40 130.197 40Z" fill="#A6A6A6"/>
<path d="M134.032 35.2681C134.032 37.3841 132.318 39.0981 130.198 39.0981H4.72901C2.61001 39.0981 0.890015 37.3841 0.890015 35.2681V4.72514C0.890015 2.61014 2.61001 0.890137 4.72901 0.890137H130.197C132.318 0.890137 134.031 2.61014 134.031 4.72514L134.032 35.2681Z" fill="black"/>
<path d="M30.128 19.7842C30.099 16.5612 32.767 14.9932 32.889 14.9202C31.378 12.7172 29.036 12.4162 28.213 12.3922C26.246 12.1852 24.338 13.5692 23.336 13.5692C22.314 13.5692 20.771 12.4122 19.108 12.4462C16.968 12.4792 14.966 13.7182 13.868 15.6422C11.602 19.5652 13.292 25.3302 15.463 28.5012C16.549 30.0542 17.818 31.7882 19.479 31.7272C21.104 31.6602 21.711 30.6912 23.672 30.6912C25.615 30.6912 26.185 31.7272 27.879 31.6882C29.623 31.6602 30.721 30.1282 31.769 28.5612C33.024 26.7812 33.528 25.0282 33.548 24.9382C33.507 24.9242 30.161 23.6472 30.128 19.7842Z" fill="white"/>
<path d="M26.928 10.3058C27.802 9.2128 28.4 7.7258 28.234 6.2168C26.969 6.2728 25.387 7.0918 24.476 8.1608C23.67 9.1028 22.95 10.6468 23.136 12.0988C24.557 12.2048 26.016 11.3818 26.928 10.3058Z" fill="white"/>
<path fill-rule="evenodd" clip-rule="evenodd" d="M51.374 31.5038H53.645L49.34 18.1958H46.694L42.41 31.5038H44.621L45.806 27.5948H50.13L51.374 31.5038ZM48.63 22.4798L49.755 25.9548H46.182L47.287 22.4798C47.577 21.3748 47.788 20.5388 47.919 19.9728H47.959C48.288 21.2888 48.511 22.1248 48.63 22.4798Z" fill="white"/>
<path fill-rule="evenodd" clip-rule="evenodd" d="M63.339 30.4569C64.221 29.5099 64.662 28.2199 64.662 26.5879C64.662 25.1269 64.284 23.9489 63.526 23.0529C62.77 22.1579 61.825 21.7109 60.693 21.7109C59.245 21.7109 58.166 22.2829 57.455 23.4289H57.415L57.296 21.9079H55.421C55.473 22.9879 55.5 24.0409 55.5 25.0669V35.4139H57.632V30.3589H57.672C58.225 31.2669 59.133 31.7209 60.397 31.7209C61.568 31.7209 62.549 31.2999 63.339 30.4569ZM61.858 24.3559C62.28 24.9619 62.49 25.7319 62.49 26.6659C62.49 27.6799 62.266 28.4959 61.818 29.1149C61.371 29.7329 60.746 30.0429 59.943 30.0429C59.259 30.0429 58.703 29.8029 58.275 29.3219C57.847 28.8409 57.633 28.2519 57.633 27.5539V25.9539C57.633 25.7839 57.666 25.5679 57.732 25.3039C57.863 24.7379 58.143 24.2809 58.571 23.9309C58.998 23.5839 59.476 23.4079 60.002 23.4079C60.778 23.4079 61.397 23.7239 61.858 24.3559Z" fill="white"/>
<path fill-rule="evenodd" clip-rule="evenodd" d="M74.375 30.4569C75.258 29.5099 75.699 28.2199 75.699 26.5879C75.699 25.1269 75.32 23.9489 74.565 23.0529C73.807 22.1579 72.862 21.7109 71.731 21.7109C70.282 21.7109 69.203 22.2829 68.493 23.4289H68.453L68.334 21.9079H66.459C66.511 22.9879 66.538 24.0409 66.538 25.0669V35.4139H68.67V30.3589H68.71C69.262 31.2669 70.17 31.7209 71.434 31.7209C72.605 31.7209 73.586 31.2999 74.375 30.4569ZM72.894 24.3559C73.316 24.9619 73.527 25.7319 73.527 26.6659C73.527 27.6799 73.303 28.4959 72.855 29.1149C72.408 29.7329 71.783 30.0429 70.98 30.0429C70.294 30.0429 69.738 29.8019 69.31 29.3219C68.884 28.8409 68.67 28.2519 68.67 27.5539V25.9539C68.67 25.7839 68.704 25.5679 68.769 25.3039C68.9 24.7379 69.179 24.2809 69.607 23.9309C70.035 23.5839 70.512 23.4079 71.039 23.4079C71.816 23.4079 72.433 23.7239 72.894 24.3559Z" fill="white"/>
<path d="M88.039 27.772C88.039 28.904 87.646 29.825 86.857 30.536C85.99 31.313 84.783 31.701 83.232 31.701C81.8 31.701 80.652 31.425 79.783 30.872L80.277 29.095C81.213 29.661 82.24 29.945 83.359 29.945C84.162 29.945 84.787 29.763 85.236 29.401C85.683 29.039 85.906 28.553 85.906 27.947C85.906 27.407 85.722 26.952 85.353 26.583C84.986 26.214 84.373 25.871 83.517 25.554C81.187 24.685 80.023 23.412 80.023 21.738C80.023 20.644 80.431 19.747 81.248 19.049C82.062 18.35 83.148 18.001 84.506 18.001C85.717 18.001 86.723 18.212 87.526 18.633L86.993 20.371C86.243 19.963 85.395 19.759 84.446 19.759C83.696 19.759 83.11 19.944 82.69 20.312C82.335 20.641 82.157 21.042 82.157 21.517C82.157 22.043 82.36 22.478 82.768 22.82C83.123 23.136 83.768 23.478 84.704 23.847C85.849 24.308 86.69 24.847 87.231 25.465C87.77 26.081 88.039 26.852 88.039 27.772Z" fill="white"/>
<path d="M95.088 23.5081H92.738V28.1671C92.738 29.3521 93.152 29.9441 93.982 29.9441C94.363 29.9441 94.679 29.9111 94.929 29.8451L94.988 31.4641C94.568 31.6211 94.015 31.7001 93.33 31.7001C92.488 31.7001 91.83 31.4431 91.355 30.9301C90.882 30.4161 90.644 29.5541 90.644 28.3431V23.5061H89.244V21.9061H90.644V20.1491L92.738 19.5171V21.9061H95.088V23.5081Z" fill="white"/>
<path fill-rule="evenodd" clip-rule="evenodd" d="M104.427 30.2599C105.269 29.3129 105.691 28.1019 105.691 26.6269C105.691 25.1919 105.283 24.0209 104.465 23.1139C103.61 22.1789 102.477 21.7119 101.069 21.7119C99.608 21.7119 98.446 22.1859 97.585 23.1339C96.722 24.0809 96.292 25.2989 96.292 26.7859C96.292 28.2069 96.71 29.3859 97.546 30.3199C98.382 31.2539 99.503 31.7209 100.911 31.7209C102.372 31.7209 103.544 31.2349 104.427 30.2599ZM102.907 24.4189C103.29 25.0519 103.479 25.8109 103.479 26.6959C103.479 27.5799 103.281 28.3469 102.888 28.9919C102.427 29.7699 101.788 30.1599 100.974 30.1599C100.143 30.1599 99.499 29.7779 99.038 29.0119C98.655 28.3799 98.466 27.6209 98.466 26.7359C98.466 25.8239 98.655 25.0529 99.038 24.4189C99.485 23.6539 100.136 23.2709 100.993 23.2709C101.821 23.2709 102.46 23.6529 102.907 24.4189Z" fill="white"/>
<path d="M112.621 23.7829C112.41 23.7439 112.185 23.7239 111.949 23.7239C111.199 23.7239 110.619 24.0069 110.211 24.5739C109.856 25.0739 109.678 25.7059 109.678 26.4689V31.5039H107.547L107.567 24.9299C107.567 23.8239 107.54 22.8169 107.487 21.9089H109.344L109.422 23.7449H109.481C109.706 23.1139 110.061 22.6059 110.547 22.2249C111.022 21.8819 111.535 21.7109 112.088 21.7109C112.285 21.7109 112.463 21.7249 112.621 21.7499V23.7829Z" fill="white"/>
<path fill-rule="evenodd" clip-rule="evenodd" d="M122.078 27.2189C122.131 26.9559 122.156 26.6339 122.156 26.2519C122.156 25.0549 121.873 24.0469 121.31 23.2319C120.599 22.2059 119.552 21.6929 118.169 21.6929C116.761 21.6929 115.642 22.2059 114.814 23.2319C114.023 24.1929 113.628 25.3979 113.628 26.8449C113.628 28.3189 114.053 29.4939 114.901 30.3689C115.751 31.2439 116.919 31.6819 118.407 31.6819C119.644 31.6819 120.716 31.4849 121.624 31.0889L121.29 29.6089C120.513 29.9119 119.649 30.0629 118.702 30.0629C117.846 30.0629 117.149 29.8389 116.61 29.3919C116.016 28.8919 115.707 28.1669 115.682 27.2189H122.078ZM119.709 24.0599C119.998 24.5209 120.137 25.0669 120.123 25.6989V25.6979H115.682C115.747 25.0539 115.958 24.5009 116.313 24.0399C116.746 23.4599 117.313 23.1709 118.01 23.1709C118.773 23.1709 119.34 23.4669 119.709 24.0599Z" fill="white"/>
<path fill-rule="evenodd" clip-rule="evenodd" d="M47.992 12.6672C48.697 12.0722 49.05 11.1862 49.05 10.0092C49.05 8.96119 48.723 8.15619 48.071 7.59319C47.489 7.09519 46.626 6.84619 45.481 6.84619C44.833 6.84619 44.233 6.89219 43.676 6.98219V13.4132C44.103 13.4652 44.613 13.4912 45.209 13.4912C46.411 13.4912 47.339 13.2162 47.992 12.6672ZM47.339 8.28219C47.743 8.69019 47.945 9.27519 47.945 10.0382C47.945 10.8922 47.725 11.5422 47.289 11.9882C46.853 12.4342 46.234 12.6572 45.432 12.6572C45.089 12.6572 44.853 12.6482 44.724 12.6282V7.73919C44.957 7.69319 45.238 7.67119 45.568 7.67119C46.345 7.67119 46.935 7.87519 47.339 8.28219Z" fill="white"/>
<path fill-rule="evenodd" clip-rule="evenodd" d="M54.288 12.822C54.702 12.356 54.909 11.762 54.909 11.037C54.909 10.333 54.708 9.75705 54.308 9.31105C53.887 8.85205 53.331 8.62305 52.639 8.62305C51.921 8.62305 51.351 8.85605 50.927 9.32105C50.503 9.78605 50.292 10.385 50.292 11.115C50.292 11.813 50.497 12.392 50.907 12.851C51.318 13.311 51.869 13.54 52.561 13.54C53.279 13.54 53.854 13.301 54.288 12.822ZM53.541 9.95205C53.728 10.263 53.822 10.636 53.822 11.071C53.822 11.506 53.725 11.882 53.531 12.199C53.305 12.582 52.991 12.773 52.591 12.773C52.183 12.773 51.867 12.585 51.64 12.209C51.453 11.898 51.359 11.525 51.359 11.09C51.359 10.642 51.452 10.263 51.64 9.95205C51.86 9.57605 52.18 9.38805 52.601 9.38805C53.008 9.38805 53.321 9.57605 53.541 9.95205Z" fill="white"/>
<path d="M62.7651 8.71924L61.2901 13.4332H60.3301L59.7191 11.3862C59.5641 10.8752 59.4381 10.3672 59.3401 9.86324H59.3211C59.2301 10.3812 59.1041 10.8882 58.9421 11.3862L58.2931 13.4332H57.3221L55.9351 8.71924H57.0121L57.5451 10.9602C57.6741 11.4902 57.7801 11.9952 57.8651 12.4732H57.8841C57.9621 12.0792 58.0911 11.5772 58.2731 10.9702L58.9421 8.72024H59.7961L60.4371 10.9222C60.5921 11.4592 60.7181 11.9762 60.8151 12.4742H60.8441C60.9151 11.9892 61.0221 11.4722 61.1641 10.9222L61.7361 8.72024H62.7651V8.71924Z" fill="white"/>
<path d="M68.198 13.4331H67.15V10.7331C67.15 9.90112 66.834 9.48512 66.2 9.48512C65.889 9.48512 65.638 9.59912 65.443 9.82812C65.25 10.0571 65.152 10.3271 65.152 10.6361V13.4321H64.104V10.0661C64.104 9.65212 64.091 9.20312 64.066 8.71712H64.987L65.036 9.45412H65.065C65.187 9.22512 65.369 9.03612 65.608 8.88512C65.892 8.70912 66.21 8.62012 66.558 8.62012C66.998 8.62012 67.364 8.76212 67.655 9.04712C68.017 9.39612 68.198 9.91712 68.198 10.6091V13.4331Z" fill="white"/>
<path d="M71.088 13.4332H70.041V6.55615H71.088V13.4332Z" fill="white"/>
<path fill-rule="evenodd" clip-rule="evenodd" d="M76.637 12.822C77.051 12.356 77.258 11.762 77.258 11.037C77.258 10.333 77.057 9.75705 76.657 9.31105C76.235 8.85205 75.68 8.62305 74.987 8.62305C74.27 8.62305 73.7 8.85605 73.276 9.32105C72.852 9.78605 72.641 10.385 72.641 11.115C72.641 11.813 72.846 12.392 73.256 12.851C73.666 13.311 74.217 13.54 74.91 13.54C75.627 13.54 76.203 13.301 76.637 12.822ZM75.889 9.95205C76.076 10.263 76.17 10.636 76.17 11.071C76.17 11.506 76.074 11.882 75.879 12.199C75.653 12.582 75.34 12.773 74.94 12.773C74.532 12.773 74.216 12.585 73.989 12.209C73.802 11.898 73.708 11.525 73.708 11.09C73.708 10.642 73.801 10.263 73.989 9.95205C74.208 9.57605 74.528 9.38805 74.95 9.38805C75.356 9.38805 75.67 9.57605 75.889 9.95205Z" fill="white"/>
<path fill-rule="evenodd" clip-rule="evenodd" d="M81.389 13.433H82.33C82.285 13.155 82.262 12.78 82.262 12.309V10.573C82.262 9.27305 81.644 8.62305 80.412 8.62305C79.774 8.62305 79.233 8.75905 78.795 9.03005L79.008 9.71805C79.362 9.48605 79.772 9.36905 80.237 9.36905C80.89 9.36905 81.216 9.67905 81.216 10.3V10.388C80.343 10.381 79.665 10.53 79.183 10.834C78.7 11.138 78.46 11.577 78.46 12.153C78.46 12.534 78.583 12.855 78.829 13.113C79.1 13.397 79.46 13.54 79.905 13.54C80.501 13.54 80.96 13.323 81.282 12.89H81.311L81.389 13.433ZM81.242 11.086V11.813C81.242 11.884 81.236 11.946 81.225 11.997C81.18 12.224 81.059 12.409 80.862 12.555C80.666 12.7 80.451 12.773 80.221 12.773C80.016 12.773 79.844 12.712 79.709 12.589C79.574 12.466 79.508 12.282 79.508 12.036C79.508 11.383 80.086 11.066 81.242 11.086Z" fill="white"/>
<path fill-rule="evenodd" clip-rule="evenodd" d="M87.355 13.4332H88.285C88.26 13.0452 88.248 12.6222 88.248 12.1632V6.55615H87.199V9.26215H87.179C86.927 8.83515 86.484 8.62215 85.851 8.62215C85.275 8.62215 84.791 8.84215 84.396 9.28215C83.988 9.75415 83.785 10.3722 83.785 11.1352C83.785 11.8462 83.972 12.4252 84.347 12.8712C84.722 13.3172 85.195 13.5402 85.763 13.5402C86.474 13.5402 86.98 13.2522 87.277 12.6762H87.306L87.355 13.4332ZM87.199 10.6592V11.4452C87.199 11.7812 87.1 12.0692 86.898 12.3082C86.689 12.5672 86.414 12.6962 86.07 12.6962C85.687 12.6962 85.381 12.5412 85.154 12.2312C84.939 11.9402 84.832 11.5622 84.832 11.0962C84.832 10.6112 84.945 10.2142 85.168 9.90315C85.393 9.59215 85.699 9.43715 86.09 9.43715C86.361 9.43715 86.596 9.52315 86.791 9.69415C86.984 9.86515 87.111 10.0772 87.17 10.3292C87.189 10.4132 87.199 10.5232 87.199 10.6592Z" fill="white"/>
<path fill-rule="evenodd" clip-rule="evenodd" d="M96.627 12.822C97.041 12.356 97.248 11.762 97.248 11.037C97.248 10.333 97.047 9.75705 96.647 9.31105C96.227 8.85205 95.67 8.62305 94.979 8.62305C94.26 8.62305 93.69 8.85605 93.266 9.32105C92.842 9.78605 92.631 10.385 92.631 11.115C92.631 11.813 92.836 12.392 93.246 12.851C93.658 13.311 94.209 13.54 94.9 13.54C95.619 13.54 96.193 13.301 96.627 12.822ZM95.881 9.95205C96.068 10.263 96.162 10.636 96.162 11.071C96.162 11.506 96.064 11.882 95.871 12.199C95.645 12.582 95.33 12.773 94.93 12.773C94.522 12.773 94.206 12.585 93.979 12.209C93.792 11.898 93.698 11.525 93.698 11.09C93.698 10.642 93.791 10.263 93.979 9.95205C94.2 9.57605 94.52 9.38805 94.94 9.38805C95.348 9.38805 95.66 9.57605 95.881 9.95205Z" fill="white"/>
<path d="M102.883 13.4331H101.836V10.7331C101.836 9.90112 101.52 9.48512 100.885 9.48512C100.574 9.48512 100.323 9.59912 100.129 9.82812C99.935 10.0571 99.838 10.3271 99.838 10.6361V13.4321H98.789V10.0661C98.789 9.65212 98.777 9.20312 98.752 8.71712H99.672L99.721 9.45412H99.75C99.873 9.22512 100.055 9.03612 100.293 8.88512C100.578 8.70912 100.895 8.62012 101.244 8.62012C101.683 8.62012 102.049 8.76212 102.34 9.04712C102.703 9.39612 102.883 9.91712 102.883 10.6091V13.4331Z" fill="white"/>
<path d="M109.936 9.50392H108.782V11.7939C108.782 12.3759 108.987 12.6669 109.393 12.6669C109.581 12.6669 109.737 12.6509 109.86 12.6179L109.887 13.4129C109.68 13.4909 109.408 13.5299 109.073 13.5299C108.659 13.5299 108.337 13.4039 108.104 13.1519C107.87 12.8999 107.754 12.4759 107.754 11.8809V9.50392H107.065V8.71892H107.754V7.85492L108.781 7.54492V8.71792H109.935V9.50392H109.936Z" fill="white"/>
<path d="M115.484 13.4332H114.435V10.7532C114.435 9.90815 114.119 9.48515 113.486 9.48515C113 9.48515 112.668 9.73015 112.486 10.2202C112.455 10.3232 112.437 10.4492 112.437 10.5972V13.4322H111.39V6.55615H112.437V9.39715H112.457C112.787 8.88015 113.26 8.62215 113.873 8.62215C114.307 8.62215 114.666 8.76415 114.951 9.04915C115.306 9.40415 115.484 9.93215 115.484 10.6302V13.4332Z" fill="white"/>
<path fill-rule="evenodd" clip-rule="evenodd" d="M121.168 11.3278C121.193 11.1988 121.207 11.0408 121.207 10.8528C121.207 10.2648 121.068 9.76977 120.787 9.36977C120.439 8.86577 119.924 8.61377 119.246 8.61377C118.553 8.61377 118.004 8.86577 117.598 9.36977C117.209 9.84177 117.016 10.4338 117.016 11.1448C117.016 11.8688 117.223 12.4458 117.641 12.8758C118.057 13.3058 118.632 13.5208 119.362 13.5208C119.971 13.5208 120.497 13.4238 120.944 13.2298L120.78 12.5018C120.398 12.6508 119.974 12.7248 119.509 12.7248C119.089 12.7248 118.746 12.6148 118.48 12.3948C118.189 12.1488 118.039 11.7938 118.025 11.3278H121.168ZM120.004 9.77677C120.146 10.0028 120.215 10.2708 120.207 10.5818H118.025C118.059 10.2648 118.162 9.99377 118.336 9.76677C118.549 9.48177 118.828 9.33977 119.17 9.33977C119.545 9.33977 119.822 9.48577 120.004 9.77677Z" fill="white"/>
</svg>
