<svg width="17" height="22" viewBox="0 0 17 22" fill="none" xmlns="http://www.w3.org/2000/svg">
<path fill-rule="evenodd" clip-rule="evenodd" d="M8.4771 0.25C2.92522 0.25 0.126221 4.21225 0.126221 7.5175C0.126221 9.51775 0.886721 11.2975 2.5191 11.9613C2.78685 12.0704 3.02647 11.9646 3.1041 11.6699C3.1581 11.4663 3.28635 10.951 3.3426 10.7361C3.42135 10.4447 3.39097 10.3424 3.17497 10.0881C2.7036 9.53575 2.40322 8.82025 2.40322 7.80662C2.40322 4.867 4.61272 2.23563 8.15647 2.23563C11.2941 2.23563 13.0176 4.14475 13.0176 6.69287C13.0176 10.0476 11.527 12.8781 9.31297 12.8781C8.09122 12.8781 7.1766 11.8713 7.4691 10.6371C7.82122 9.1645 8.50072 7.57375 8.50072 6.5095C8.50072 5.55775 7.98772 4.7635 6.9246 4.7635C5.67585 4.7635 4.67235 6.0505 4.67235 7.774C4.67235 8.87313 5.04472 9.61563 5.04472 9.61563C5.04472 9.61563 3.7656 15.0089 3.54172 15.9539C3.0951 17.8349 3.47535 20.1411 3.50685 20.3751C3.52597 20.5124 3.70372 20.545 3.78472 20.4415C3.89947 20.2908 5.38785 18.4626 5.8941 16.6345C6.03697 16.117 6.71535 13.4373 6.71535 13.4373C7.12147 14.2079 8.30835 14.8874 9.56947 14.8874C13.3258 14.8874 15.874 11.4775 15.874 6.9145C15.874 3.46413 12.9388 0.25 8.4771 0.25Z" fill="white"/>
</svg>
