<svg width="80" height="96" viewBox="0 0 80 96" fill="none" xmlns="http://www.w3.org/2000/svg">
<g opacity="0.5">
<path fill-rule="evenodd" clip-rule="evenodd" d="M39.9415 52.4529C46.3587 52.4529 61.4473 44.7305 61.4473 26.2246C61.4473 23.64 61.3827 21.1495 61.1723 18.7938C60.8233 14.1582 59.8799 10.0486 57.5095 6.89908C54.4744 2.61785 49.1686 0 39.9415 0C30.7144 0 25.4104 2.616 22.379 6.89908C20.0141 10.0505 19.0559 14.16 18.7144 18.7975C18.5021 21.1532 18.4393 23.6474 18.4393 26.2283C18.4393 44.7323 33.5279 52.4548 39.9433 52.4548L39.9415 52.4529ZM46.9606 9.6L45.395 13.5582C41.3501 12.4154 38.5347 12.4154 34.4898 13.5582C34.0127 12.3508 33.717 11.6046 33.3253 10.6166L33.3237 10.6125L32.9224 9.6C37.9827 8.06954 41.9039 8.06954 46.9532 9.6H46.9606ZM21.6367 22.2185L21.635 22.2148H21.6369L21.6367 22.2185ZM21.5686 26.2283C21.5686 24.8893 21.587 23.5465 21.6367 22.2185C21.8872 22.7652 22.9311 24.8423 24.5649 25.0357C25.1484 25.1059 25.8526 24.4877 26.8602 23.6031C29.0848 21.6501 32.7885 18.3984 39.9396 18.3895C47.0911 18.401 50.7939 21.6506 53.0184 23.6029C54.027 24.488 54.7317 25.1065 55.3163 25.0357C56.9446 24.84 57.9987 22.7557 58.2461 22.2148C58.2959 23.544 58.3144 24.888 58.3144 26.2283C58.3144 35.2745 54.3212 40.8775 50.9704 43.9865C46.7483 47.904 42.0609 49.3237 39.9415 49.3237C37.8221 49.3237 33.1329 47.9022 28.9126 43.9865C25.5618 40.8775 21.5686 35.2726 21.5686 26.2283ZM79.8627 79.3514C78.7643 72.5206 76.5046 63.7329 71.9723 60.6074C68.8781 58.4726 58.0887 52.7088 53.4707 50.2418L53.4707 50.2418L53.4627 50.2375L53.3852 50.1951C52.8588 49.9135 52.2158 49.9692 51.7458 50.3372C49.443 52.1796 46.7541 53.4784 43.8794 54.1366C43.3847 54.2468 42.9788 54.5986 42.7994 55.0726L39.9434 62.5975L37.0892 55.0726C36.9095 54.5982 36.5027 54.2463 36.0074 54.1366C33.1333 53.4782 30.4449 52.1794 28.1427 50.3372C27.6721 49.9689 27.0284 49.9131 26.5015 50.1951C21.9397 52.632 11.0067 58.5231 7.92367 60.5982C2.70459 64.1059 0.422743 76.8443 0.0202816 79.3514C-0.0188094 79.5993 0.00402263 79.8529 0.0867431 80.0898C0.199358 80.4018 1.9329 84.8714 10.5563 88.4677C11.0515 87.8426 11.7113 87.3682 12.4615 87.0978C11.2829 86.6857 10.3454 85.7758 9.89833 84.61C9.45128 83.4441 9.54 82.1406 10.1409 81.0462C12.2529 77.1707 16.2367 74.6808 20.6458 74.4807C25.0548 74.2807 29.2478 76.3994 31.7021 80.0677H48.1735C50.5153 76.5755 54.4402 74.476 58.6449 74.4665C63.254 74.4645 67.4987 76.9717 69.7218 81.0092C70.3234 82.1029 70.4146 83.4056 69.971 84.5723C69.5275 85.7391 68.594 86.6523 67.4178 87.0702C68.1811 87.3414 68.852 87.8234 69.3526 88.4603C77.9612 84.8677 79.691 80.4055 79.7963 80.0935C79.8788 79.8566 79.9016 79.603 79.8627 79.3551V79.3514ZM58.0653 90.5631L66.0037 90.552L65.9963 90.5594C66.1855 90.5591 66.3608 90.6586 66.4574 90.8212C66.5541 90.9838 66.5578 91.1854 66.4671 91.3514C64.9096 94.2053 61.9202 95.9831 58.6689 95.9889H58.656C55.019 95.983 51.7508 93.7665 50.4 90.3896H29.4812C28.1347 93.7677 24.8674 95.9859 21.2308 95.9908H21.216C17.9694 95.9898 14.9809 94.221 13.4179 91.3754C13.3264 91.2095 13.3294 91.0077 13.4258 90.8447C13.5221 90.6816 13.6974 90.5815 13.8868 90.5816L21.8252 90.5705C21.9656 90.2326 22.2332 89.3077 22.2296 87.0942C22.2259 84.8806 21.9582 83.952 21.816 83.6179L13.8776 83.6308C13.6877 83.6302 13.5123 83.5292 13.4167 83.3652C13.321 83.2012 13.3194 82.9988 13.4123 82.8333C15.061 79.8084 18.309 78.0084 21.7479 78.214C25.1868 78.4195 28.1972 80.5935 29.4739 83.7933H50.4019C51.6772 80.5952 54.6832 78.4201 58.1196 78.2088C61.556 77.9975 64.8059 79.7879 66.4634 82.8056C66.5548 82.9714 66.5518 83.1732 66.4555 83.3363C66.3592 83.4994 66.1839 83.5994 65.9945 83.5994L58.056 83.6105C57.9157 83.9502 57.6499 84.8751 57.6517 87.0886C57.6536 89.3022 57.9231 90.2289 58.0653 90.5631Z" fill="#465366"/>
</g>
</svg>
