<svg xmlns="http://www.w3.org/2000/svg" width="32" height="32" fill="none" viewBox="0 0 32 32">
    <path fill="gray" fill-rule="evenodd" d="M31.336 31.334c-.851.854-2.233.854-3.087 0l-6.33-6.33c-5.116 3.639-12.24 3.2-16.826-1.39-5.115-5.114-5.115-13.408 0-18.523 5.117-5.113 13.41-5.113 18.526 0 4.587 4.587 5.026 11.71 1.386 16.825l6.331 6.33c.854.853.854 2.235 0 3.088zM20.53 8.18c-3.41-3.412-8.938-3.412-12.348 0-3.412 3.408-3.412 8.936 0 12.348 3.41 3.41 8.938 3.41 12.348 0 3.412-3.412 3.412-8.94 0-12.348z" clip-rule="evenodd"/>
</svg>
