<svg width="25" height="20" viewBox="0 0 25 20" fill="none" xmlns="http://www.w3.org/2000/svg">
<path fill-rule="evenodd" clip-rule="evenodd" d="M24.259 2.25785C23.3894 2.6201 22.4545 2.86198 21.4746 2.97223C22.4759 2.40973 23.2443 1.51873 23.6065 0.458977C22.6683 0.978727 21.631 1.35673 20.5263 1.56148C19.6431 0.677227 18.382 0.125977 16.9881 0.125977C14.3106 0.125977 12.1383 2.1611 12.1383 4.66985C12.1383 5.02648 12.181 5.3741 12.2642 5.70598C8.2345 5.51585 4.6615 3.70685 2.26975 0.958477C1.85238 1.6301 1.61387 2.40973 1.61387 3.24335C1.61387 4.81835 2.47 6.2111 3.7705 7.0256C2.97625 7.00085 2.22925 6.79723 1.5745 6.45635C1.5745 6.4766 1.5745 6.49348 1.5745 6.51485C1.5745 8.71648 3.24513 10.5525 5.46362 10.9699C5.0575 11.0734 4.62775 11.1274 4.18675 11.1274C3.874 11.1274 3.57025 11.1004 3.27437 11.0486C3.89087 12.852 5.68188 14.1671 7.80363 14.2042C6.14425 15.4226 4.054 16.1482 1.7815 16.1482C1.39 16.1482 1.00412 16.1269 0.625 16.0852C2.77038 17.3734 5.31962 18.1271 8.05788 18.1271C16.9769 18.1271 21.8538 11.2016 21.8538 5.19748C21.8538 4.99948 21.8481 4.80485 21.8391 4.6091C22.7864 3.96785 23.6088 3.16798 24.259 2.25785Z" fill="white"/>
</svg>
