<svg width="96" height="96" viewBox="0 0 96 96" fill="none" xmlns="http://www.w3.org/2000/svg">
<g opacity="0.5">
<path fill-rule="evenodd" clip-rule="evenodd" d="M50.7987 0C57.0013 0 62.0451 5.23403 62.0451 11.4345C62.0451 17.6371 56.9992 22.8775 50.7966 22.8775C44.594 22.8775 39.3643 17.6371 39.3643 11.4345C39.3643 5.23189 44.5962 0 50.7987 0ZM33.7411 36.9269V34.1153C33.7561 29.9543 35.3202 25.948 38.1284 22.8775C41.376 26.4501 45.9771 28.4911 50.8051 28.5007C55.5764 28.4877 60.1162 26.4425 63.2873 22.8775C66.0932 25.949 67.6549 29.9551 67.6682 34.1153V36.9269C67.6688 37.6727 67.3727 38.3882 66.8454 38.9156C66.318 39.443 65.6025 39.739 64.8566 39.7384H36.5612C35.8139 39.7413 35.0962 39.4463 34.567 38.9186C34.0377 38.391 33.7405 37.6742 33.7411 36.9269ZM12.8285 57.5722C11.4451 54.7983 8.07788 53.6669 5.30026 55.0429L1.56289 56.8987C0.893344 57.2311 0.38359 57.8163 0.146121 58.5251C-0.091347 59.2339 -0.0370099 60.008 0.297141 60.6767L17.1666 94.4157C17.8595 95.8019 19.5429 96.3669 20.9318 95.6793L24.6285 93.8469C25.9651 93.1818 26.9823 92.0125 27.456 90.5968C27.9296 89.181 27.8208 87.635 27.1536 86.2995L12.8285 57.5722ZM86.2417 47.1597C88.1715 45.0662 91.364 44.7518 93.6652 46.4285C94.874 47.3231 95.6776 48.6615 95.899 50.149C96.1204 51.6364 95.7413 53.1509 94.8454 54.3587L78.3522 77.976C75.1593 82.2153 70.1639 84.713 64.8566 84.7238H32.6592L16.677 52.676L20.7458 49.0947L20.8292 49.1631C23.3329 47.179 25.8002 45.708 29.4606 44.8527C36.0545 43.3283 42.5649 45.2141 46.9159 49.1289C47.0959 49.2859 47.265 49.4409 47.4282 49.5904C48.2692 50.3609 48.9501 50.9848 50.1231 50.9848H64.8545C67.9601 50.9848 70.4776 53.5023 70.4776 56.6079C70.4776 59.7135 67.9601 62.2311 64.8545 62.2311H53.6081C52.0553 62.2311 50.7966 63.4899 50.7966 65.0427C50.7966 66.5955 52.0553 67.8543 53.6081 67.8543H66.7103C67.7772 67.8543 69.802 67.1786 70.871 66.054L86.2417 47.1597Z" fill="#465366"/>
</g>
</svg>
