<svg width="92" height="96" viewBox="0 0 92 96" fill="none" xmlns="http://www.w3.org/2000/svg">
<g opacity="0.5">
<path d="M82.0728 34.8046C80.8774 15.3208 64.6978 0.148224 45.1775 0.205545C25.6572 0.148224 9.47765 15.3208 8.28227 34.8046C1.17784 40.0863 -1.74044 49.3274 1.04219 57.7313C3.82481 66.1352 11.6815 71.8087 20.5341 71.8067C22.8047 71.8067 24.6454 69.966 24.6454 67.6954V34.8457C24.6454 32.5751 22.8047 30.7344 20.5341 30.7344C19.3702 30.7382 18.2087 30.8407 17.0621 31.0407C19.9599 17.8379 31.6553 8.431 45.1724 8.431C58.6894 8.431 70.3849 17.8379 73.2827 31.0407C72.1372 30.8437 70.9771 30.7439 69.8148 30.7426C67.5441 30.7426 65.7034 32.5833 65.7034 34.8539V67.7016C65.7034 69.9722 67.5441 71.8129 69.8148 71.8129C71.1956 71.8143 72.573 71.6766 73.9261 71.4018V81.1189C73.9239 83.1786 72.2547 84.8477 70.1951 84.85H63.1092C62.5317 83.2092 60.984 82.1093 59.2445 82.1036H45.1775C42.9069 82.1036 41.0662 83.9443 41.0662 86.215V91.6831C41.0662 93.9537 42.9069 95.7944 45.1775 95.7944H59.2445C60.9819 95.7899 62.5289 94.6939 63.1092 93.0563H70.193C76.7875 93.0495 82.1318 87.7052 82.1385 81.1107V67.6913C87.3229 63.8086 90.369 57.7055 90.3552 51.2284C90.3415 44.7513 87.2695 38.6611 82.0687 34.8005L82.0728 34.8046Z" fill="#465366"/>
</g>
</svg>
