<svg width="154" height="186" viewBox="0 0 154 186" fill="none" xmlns="http://www.w3.org/2000/svg">
<g clip-path="url(#clip0)">
<g opacity="0.5">
<path fill-rule="evenodd" clip-rule="evenodd" d="M76.9415 52.4529C83.3587 52.4529 98.4473 44.7305 98.4473 26.2246C98.4473 23.64 98.3827 21.1495 98.1723 18.7938C97.8233 14.1582 96.8799 10.0486 94.5095 6.89908C91.4744 2.61785 86.1686 0 76.9415 0C67.7144 0 62.4104 2.616 59.379 6.89908C57.0141 10.0505 56.0559 14.16 55.7144 18.7975C55.5021 21.1532 55.4393 23.6474 55.4393 26.2283C55.4393 44.7323 70.5279 52.4548 76.9433 52.4548L76.9415 52.4529ZM83.9606 9.6L82.395 13.5582C78.3501 12.4154 75.5347 12.4154 71.4898 13.5582C71.0127 12.3508 70.717 11.6046 70.3253 10.6166L70.3237 10.6125L69.9224 9.6C74.9827 8.06954 78.9039 8.06954 83.9532 9.6H83.9606ZM58.6367 22.2185L58.635 22.2148H58.6369L58.6367 22.2185ZM58.5686 26.2283C58.5686 24.8893 58.587 23.5465 58.6367 22.2185C58.8872 22.7652 59.9311 24.8423 61.5649 25.0357C62.1484 25.1059 62.8526 24.4877 63.8602 23.6031C66.0848 21.6501 69.7885 18.3984 76.9396 18.3895C84.0911 18.401 87.7939 21.6506 90.0184 23.6029C91.027 24.488 91.7317 25.1065 92.3163 25.0357C93.9446 24.84 94.9987 22.7557 95.2461 22.2148C95.2959 23.544 95.3144 24.888 95.3144 26.2283C95.3144 35.2745 91.3212 40.8775 87.9704 43.9865C83.7483 47.904 79.0609 49.3237 76.9415 49.3237C74.8221 49.3237 70.1329 47.9022 65.9126 43.9865C62.5618 40.8775 58.5686 35.2726 58.5686 26.2283ZM116.863 79.3514C115.764 72.5206 113.505 63.7329 108.972 60.6074C105.878 58.4726 95.0887 52.7088 90.4707 50.2418L90.4707 50.2418L90.4627 50.2375L90.3852 50.1951C89.8588 49.9135 89.2158 49.9692 88.7458 50.3372C86.443 52.1796 83.7541 53.4784 80.8794 54.1366C80.3847 54.2468 79.9788 54.5986 79.7994 55.0726L76.9434 62.5975L74.0892 55.0726C73.9095 54.5982 73.5027 54.2463 73.0074 54.1366C70.1333 53.4782 67.4449 52.1794 65.1427 50.3372C64.6721 49.9689 64.0284 49.9131 63.5015 50.1951C58.9397 52.632 48.0067 58.5231 44.9237 60.5982C39.7046 64.1059 37.4227 76.8443 37.0203 79.3514C36.9812 79.5993 37.004 79.8529 37.0867 80.0898C37.1994 80.4018 38.9329 84.8714 47.5563 88.4677C48.0515 87.8426 48.7113 87.3682 49.4615 87.0978C48.2829 86.6857 47.3454 85.7758 46.8983 84.61C46.4513 83.4441 46.54 82.1406 47.1409 81.0462C49.2529 77.1707 53.2367 74.6808 57.6458 74.4807C62.0548 74.2807 66.2478 76.3994 68.7021 80.0677H85.1735C87.5153 76.5755 91.4402 74.476 95.6449 74.4665C100.254 74.4645 104.499 76.9717 106.722 81.0092C107.323 82.1029 107.415 83.4056 106.971 84.5723C106.527 85.7391 105.594 86.6523 104.418 87.0702C105.181 87.3414 105.852 87.8234 106.353 88.4603C114.961 84.8677 116.691 80.4055 116.796 80.0935C116.879 79.8566 116.902 79.603 116.863 79.3551V79.3514ZM95.0653 90.5631L103.004 90.552L102.996 90.5594C103.185 90.5591 103.361 90.6586 103.457 90.8212C103.554 90.9838 103.558 91.1854 103.467 91.3514C101.91 94.2053 98.9202 95.9831 95.6689 95.9889H95.656C92.019 95.983 88.7508 93.7665 87.4 90.3896H66.4812C65.1347 93.7677 61.8674 95.9859 58.2308 95.9908H58.216C54.9694 95.9898 51.9809 94.221 50.4179 91.3754C50.3264 91.2095 50.3294 91.0077 50.4258 90.8447C50.5221 90.6816 50.6974 90.5815 50.8868 90.5816L58.8252 90.5705C58.9656 90.2326 59.2332 89.3077 59.2296 87.0942C59.2259 84.8806 58.9582 83.952 58.816 83.6179L50.8776 83.6308C50.6877 83.6302 50.5123 83.5292 50.4167 83.3652C50.321 83.2012 50.3194 82.9988 50.4123 82.8333C52.061 79.8084 55.309 78.0084 58.7479 78.214C62.1868 78.4195 65.1972 80.5935 66.4739 83.7933H87.4019C88.6772 80.5952 91.6832 78.4201 95.1196 78.2088C98.556 77.9975 101.806 79.7879 103.463 82.8056C103.555 82.9714 103.552 83.1732 103.456 83.3363C103.359 83.4994 103.184 83.5994 102.994 83.5994L95.056 83.6105C94.9157 83.9502 94.6499 84.8751 94.6517 87.0886C94.6536 89.3022 94.9231 90.2289 95.0653 90.5631Z" fill="#465366"/>
</g>
<path d="M6.35254 157H4.25195V145.952H0.472656V144.15H10.1318V145.952H6.35254V157ZM17.1953 147.104C17.6113 147.104 17.9541 147.133 18.2236 147.191L18.0215 149.116C17.7285 149.046 17.4238 149.011 17.1074 149.011C16.2812 149.011 15.6104 149.28 15.0947 149.819C14.585 150.358 14.3301 151.059 14.3301 151.92V157H12.2646V147.279H13.8818L14.1543 148.993H14.2598C14.582 148.413 15.001 147.953 15.5166 147.613C16.0381 147.273 16.5977 147.104 17.1953 147.104ZM26.4912 157L26.0781 155.646H26.0078C25.5391 156.238 25.0674 156.643 24.5928 156.859C24.1182 157.07 23.5088 157.176 22.7646 157.176C21.8096 157.176 21.0625 156.918 20.5234 156.402C19.9902 155.887 19.7236 155.157 19.7236 154.214C19.7236 153.212 20.0957 152.456 20.8398 151.946C21.584 151.437 22.7178 151.158 24.2412 151.111L25.9199 151.059V150.54C25.9199 149.919 25.7734 149.456 25.4805 149.151C25.1934 148.841 24.7451 148.686 24.1357 148.686C23.6377 148.686 23.1602 148.759 22.7031 148.905C22.2461 149.052 21.8066 149.225 21.3848 149.424L20.7168 147.947C21.2441 147.672 21.8213 147.464 22.4482 147.323C23.0752 147.177 23.667 147.104 24.2236 147.104C25.46 147.104 26.3916 147.373 27.0186 147.912C27.6514 148.451 27.9678 149.298 27.9678 150.452V157H26.4912ZM23.415 155.594C24.165 155.594 24.7656 155.386 25.2168 154.97C25.6738 154.548 25.9023 153.959 25.9023 153.203V152.359L24.6543 152.412C23.6816 152.447 22.9727 152.611 22.5273 152.904C22.0879 153.191 21.8682 153.634 21.8682 154.231C21.8682 154.665 21.9971 155.002 22.2549 155.242C22.5127 155.477 22.8994 155.594 23.415 155.594ZM33.291 157H31.2256V147.279H33.291V157ZM31.1025 144.704C31.1025 144.335 31.2021 144.051 31.4014 143.852C31.6064 143.652 31.8965 143.553 32.2715 143.553C32.6348 143.553 32.916 143.652 33.1152 143.852C33.3203 144.051 33.4229 144.335 33.4229 144.704C33.4229 145.056 33.3203 145.334 33.1152 145.539C32.916 145.738 32.6348 145.838 32.2715 145.838C31.8965 145.838 31.6064 145.738 31.4014 145.539C31.2021 145.334 31.1025 145.056 31.1025 144.704ZM45.1797 157H43.1055V151.023C43.1055 150.273 42.9531 149.714 42.6484 149.345C42.3496 148.976 41.8721 148.791 41.2158 148.791C40.3428 148.791 39.7041 149.049 39.2998 149.564C38.8955 150.08 38.6934 150.944 38.6934 152.157V157H36.6279V147.279H38.2451L38.5352 148.554H38.6406C38.9336 148.091 39.3496 147.733 39.8887 147.481C40.4277 147.229 41.0254 147.104 41.6816 147.104C44.0137 147.104 45.1797 148.29 45.1797 150.663V157ZM52.6738 157.176C51.1621 157.176 49.9785 156.736 49.123 155.857C48.2734 154.973 47.8486 153.757 47.8486 152.21C47.8486 150.622 48.2441 149.374 49.0352 148.466C49.8262 147.558 50.9131 147.104 52.2959 147.104C53.5791 147.104 54.5928 147.493 55.3369 148.272C56.0811 149.052 56.4531 150.124 56.4531 151.489V152.605H49.9756C50.0049 153.549 50.2598 154.275 50.7402 154.785C51.2207 155.289 51.8975 155.541 52.7705 155.541C53.3447 155.541 53.8779 155.488 54.3701 155.383C54.8682 155.271 55.4014 155.09 55.9697 154.838V156.517C55.4658 156.757 54.9561 156.927 54.4404 157.026C53.9248 157.126 53.3359 157.176 52.6738 157.176ZM52.2959 148.668C51.6396 148.668 51.1123 148.876 50.7139 149.292C50.3213 149.708 50.0869 150.314 50.0107 151.111H54.4229C54.4111 150.309 54.2178 149.702 53.8428 149.292C53.4678 148.876 52.9521 148.668 52.2959 148.668ZM62.4531 157.176C61.2402 157.176 60.2939 156.736 59.6143 155.857C58.9346 154.979 58.5947 153.745 58.5947 152.157C58.5947 150.563 58.9375 149.324 59.623 148.439C60.3145 147.549 61.2695 147.104 62.4883 147.104C63.7656 147.104 64.7383 147.575 65.4062 148.519H65.5117C65.4121 147.821 65.3623 147.271 65.3623 146.866V143.324H67.4365V157H65.8193L65.459 155.726H65.3623C64.7002 156.692 63.7305 157.176 62.4531 157.176ZM63.0068 155.506C63.8564 155.506 64.4746 155.269 64.8613 154.794C65.248 154.313 65.4473 153.537 65.459 152.465V152.175C65.459 150.95 65.2598 150.08 64.8613 149.564C64.4629 149.049 63.8389 148.791 62.9893 148.791C62.2627 148.791 61.7031 149.087 61.3105 149.679C60.918 150.265 60.7217 151.103 60.7217 152.192C60.7217 153.271 60.9121 154.094 61.293 154.662C61.6738 155.225 62.2451 155.506 63.0068 155.506ZM76.0352 157V144.15H78.1357V157H76.0352ZM90.2441 157H88.1699V151.023C88.1699 150.273 88.0176 149.714 87.7129 149.345C87.4141 148.976 86.9365 148.791 86.2803 148.791C85.4072 148.791 84.7686 149.049 84.3643 149.564C83.96 150.08 83.7578 150.944 83.7578 152.157V157H81.6924V147.279H83.3096L83.5996 148.554H83.7051C83.998 148.091 84.4141 147.733 84.9531 147.481C85.4922 147.229 86.0898 147.104 86.7461 147.104C89.0781 147.104 90.2441 148.29 90.2441 150.663V157ZM92.6494 153.054V151.296H97.167V153.054H92.6494ZM110.022 157H107.913V151.208H101.989V157H99.8887V144.15H101.989V149.406H107.913V144.15H110.022V157ZM122.184 152.122C122.184 153.71 121.776 154.949 120.962 155.84C120.147 156.73 119.014 157.176 117.561 157.176C116.652 157.176 115.85 156.971 115.152 156.561C114.455 156.15 113.919 155.562 113.544 154.794C113.169 154.026 112.981 153.136 112.981 152.122C112.981 150.546 113.386 149.315 114.194 148.431C115.003 147.546 116.143 147.104 117.613 147.104C119.02 147.104 120.133 147.558 120.953 148.466C121.773 149.368 122.184 150.587 122.184 152.122ZM115.108 152.122C115.108 154.366 115.938 155.488 117.596 155.488C119.236 155.488 120.057 154.366 120.057 152.122C120.057 149.901 119.23 148.791 117.578 148.791C116.711 148.791 116.081 149.078 115.688 149.652C115.302 150.227 115.108 151.05 115.108 152.122ZM131.796 157L131.506 155.726H131.4C131.113 156.177 130.703 156.531 130.17 156.789C129.643 157.047 129.039 157.176 128.359 157.176C127.182 157.176 126.303 156.883 125.723 156.297C125.143 155.711 124.853 154.823 124.853 153.634V147.279H126.936V153.273C126.936 154.018 127.088 154.577 127.393 154.952C127.697 155.321 128.175 155.506 128.825 155.506C129.692 155.506 130.328 155.248 130.732 154.732C131.143 154.211 131.348 153.341 131.348 152.122V147.279H133.422V157H131.796ZM143.271 154.231C143.271 155.181 142.926 155.91 142.234 156.42C141.543 156.924 140.553 157.176 139.264 157.176C137.969 157.176 136.929 156.979 136.144 156.587V154.803C137.286 155.33 138.35 155.594 139.334 155.594C140.605 155.594 141.241 155.21 141.241 154.442C141.241 154.196 141.171 153.991 141.03 153.827C140.89 153.663 140.658 153.493 140.336 153.317C140.014 153.142 139.565 152.942 138.991 152.72C137.872 152.286 137.113 151.853 136.715 151.419C136.322 150.985 136.126 150.423 136.126 149.731C136.126 148.899 136.46 148.255 137.128 147.798C137.802 147.335 138.716 147.104 139.87 147.104C141.013 147.104 142.094 147.335 143.113 147.798L142.445 149.354C141.396 148.92 140.515 148.703 139.8 148.703C138.71 148.703 138.165 149.014 138.165 149.635C138.165 149.939 138.306 150.197 138.587 150.408C138.874 150.619 139.495 150.909 140.45 151.278C141.253 151.589 141.836 151.873 142.199 152.131C142.562 152.389 142.832 152.688 143.008 153.027C143.184 153.361 143.271 153.763 143.271 154.231ZM150.133 157.176C148.621 157.176 147.438 156.736 146.582 155.857C145.732 154.973 145.308 153.757 145.308 152.21C145.308 150.622 145.703 149.374 146.494 148.466C147.285 147.558 148.372 147.104 149.755 147.104C151.038 147.104 152.052 147.493 152.796 148.272C153.54 149.052 153.912 150.124 153.912 151.489V152.605H147.435C147.464 153.549 147.719 154.275 148.199 154.785C148.68 155.289 149.356 155.541 150.229 155.541C150.804 155.541 151.337 155.488 151.829 155.383C152.327 155.271 152.86 155.09 153.429 154.838V156.517C152.925 156.757 152.415 156.927 151.899 157.026C151.384 157.126 150.795 157.176 150.133 157.176ZM149.755 148.668C149.099 148.668 148.571 148.876 148.173 149.292C147.78 149.708 147.546 150.314 147.47 151.111H151.882C151.87 150.309 151.677 149.702 151.302 149.292C150.927 148.876 150.411 148.668 149.755 148.668ZM27.4551 173.035C27.4551 174.377 27.0156 175.405 26.1367 176.12C25.2578 176.835 24.0068 177.192 22.3838 177.192H21.0479V182H18.9473V169.15H22.6475C24.2529 169.15 25.4541 169.479 26.251 170.135C27.0537 170.791 27.4551 171.758 27.4551 173.035ZM21.0479 175.426H22.1641C23.2422 175.426 24.0332 175.238 24.5371 174.863C25.041 174.488 25.293 173.902 25.293 173.105C25.293 172.367 25.0674 171.816 24.6162 171.453C24.165 171.09 23.4619 170.908 22.5068 170.908H21.0479V175.426ZM35.1074 172.104C35.5234 172.104 35.8662 172.133 36.1357 172.191L35.9336 174.116C35.6406 174.046 35.3359 174.011 35.0195 174.011C34.1934 174.011 33.5225 174.28 33.0068 174.819C32.4971 175.358 32.2422 176.059 32.2422 176.92V182H30.1768V172.279H31.7939L32.0664 173.993H32.1719C32.4941 173.413 32.9131 172.953 33.4287 172.613C33.9502 172.273 34.5098 172.104 35.1074 172.104ZM46.9434 177.122C46.9434 178.71 46.5361 179.949 45.7217 180.84C44.9072 181.73 43.7734 182.176 42.3203 182.176C41.4121 182.176 40.6094 181.971 39.9121 181.561C39.2148 181.15 38.6787 180.562 38.3037 179.794C37.9287 179.026 37.7412 178.136 37.7412 177.122C37.7412 175.546 38.1455 174.315 38.9541 173.431C39.7627 172.546 40.9023 172.104 42.373 172.104C43.7793 172.104 44.8926 172.558 45.7129 173.466C46.5332 174.368 46.9434 175.587 46.9434 177.122ZM39.8682 177.122C39.8682 179.366 40.6973 180.488 42.3555 180.488C43.9961 180.488 44.8164 179.366 44.8164 177.122C44.8164 174.901 43.9902 173.791 42.3379 173.791C41.4707 173.791 40.8408 174.078 40.4482 174.652C40.0615 175.227 39.8682 176.05 39.8682 177.122ZM54.5781 173.844H52.2051V182H50.1309V173.844H48.5312V172.877L50.1309 172.244V171.611C50.1309 170.463 50.4004 169.613 50.9395 169.062C51.4785 168.506 52.3018 168.228 53.4092 168.228C54.1357 168.228 54.8506 168.348 55.5537 168.588L55.0088 170.152C54.499 169.988 54.0127 169.906 53.5498 169.906C53.0811 169.906 52.7383 170.053 52.5215 170.346C52.3105 170.633 52.2051 171.066 52.2051 171.646V172.279H54.5781V173.844ZM60.8594 182.176C59.3477 182.176 58.1641 181.736 57.3086 180.857C56.459 179.973 56.0342 178.757 56.0342 177.21C56.0342 175.622 56.4297 174.374 57.2207 173.466C58.0117 172.558 59.0986 172.104 60.4814 172.104C61.7646 172.104 62.7783 172.493 63.5225 173.272C64.2666 174.052 64.6387 175.124 64.6387 176.489V177.605H58.1611C58.1904 178.549 58.4453 179.275 58.9258 179.785C59.4062 180.289 60.083 180.541 60.9561 180.541C61.5303 180.541 62.0635 180.488 62.5557 180.383C63.0537 180.271 63.5869 180.09 64.1553 179.838V181.517C63.6514 181.757 63.1416 181.927 62.626 182.026C62.1104 182.126 61.5215 182.176 60.8594 182.176ZM60.4814 173.668C59.8252 173.668 59.2979 173.876 58.8994 174.292C58.5068 174.708 58.2725 175.314 58.1963 176.111H62.6084C62.5967 175.309 62.4033 174.702 62.0283 174.292C61.6533 173.876 61.1377 173.668 60.4814 173.668ZM73.8906 179.231C73.8906 180.181 73.5449 180.91 72.8535 181.42C72.1621 181.924 71.1719 182.176 69.8828 182.176C68.5879 182.176 67.5479 181.979 66.7627 181.587V179.803C67.9053 180.33 68.9688 180.594 69.9531 180.594C71.2246 180.594 71.8604 180.21 71.8604 179.442C71.8604 179.196 71.79 178.991 71.6494 178.827C71.5088 178.663 71.2773 178.493 70.9551 178.317C70.6328 178.142 70.1846 177.942 69.6104 177.72C68.4912 177.286 67.7324 176.853 67.334 176.419C66.9414 175.985 66.7451 175.423 66.7451 174.731C66.7451 173.899 67.0791 173.255 67.7471 172.798C68.4209 172.335 69.335 172.104 70.4893 172.104C71.6318 172.104 72.7129 172.335 73.7324 172.798L73.0645 174.354C72.0156 173.92 71.1338 173.703 70.4189 173.703C69.3291 173.703 68.7842 174.014 68.7842 174.635C68.7842 174.939 68.9248 175.197 69.2061 175.408C69.4932 175.619 70.1143 175.909 71.0693 176.278C71.8721 176.589 72.4551 176.873 72.8184 177.131C73.1816 177.389 73.4512 177.688 73.627 178.027C73.8027 178.361 73.8906 178.763 73.8906 179.231ZM83.0371 179.231C83.0371 180.181 82.6914 180.91 82 181.42C81.3086 181.924 80.3184 182.176 79.0293 182.176C77.7344 182.176 76.6943 181.979 75.9092 181.587V179.803C77.0518 180.33 78.1152 180.594 79.0996 180.594C80.3711 180.594 81.0068 180.21 81.0068 179.442C81.0068 179.196 80.9365 178.991 80.7959 178.827C80.6553 178.663 80.4238 178.493 80.1016 178.317C79.7793 178.142 79.3311 177.942 78.7568 177.72C77.6377 177.286 76.8789 176.853 76.4805 176.419C76.0879 175.985 75.8916 175.423 75.8916 174.731C75.8916 173.899 76.2256 173.255 76.8936 172.798C77.5674 172.335 78.4814 172.104 79.6357 172.104C80.7783 172.104 81.8594 172.335 82.8789 172.798L82.2109 174.354C81.1621 173.92 80.2803 173.703 79.5654 173.703C78.4756 173.703 77.9307 174.014 77.9307 174.635C77.9307 174.939 78.0713 175.197 78.3525 175.408C78.6396 175.619 79.2607 175.909 80.2158 176.278C81.0186 176.589 81.6016 176.873 81.9648 177.131C82.3281 177.389 82.5977 177.688 82.7734 178.027C82.9492 178.361 83.0371 178.763 83.0371 179.231ZM87.7188 182H85.6533V172.279H87.7188V182ZM85.5303 169.704C85.5303 169.335 85.6299 169.051 85.8291 168.852C86.0342 168.652 86.3242 168.553 86.6992 168.553C87.0625 168.553 87.3438 168.652 87.543 168.852C87.748 169.051 87.8506 169.335 87.8506 169.704C87.8506 170.056 87.748 170.334 87.543 170.539C87.3438 170.738 87.0625 170.838 86.6992 170.838C86.3242 170.838 86.0342 170.738 85.8291 170.539C85.6299 170.334 85.5303 170.056 85.5303 169.704ZM99.6777 177.122C99.6777 178.71 99.2705 179.949 98.4561 180.84C97.6416 181.73 96.5078 182.176 95.0547 182.176C94.1465 182.176 93.3438 181.971 92.6465 181.561C91.9492 181.15 91.4131 180.562 91.0381 179.794C90.6631 179.026 90.4756 178.136 90.4756 177.122C90.4756 175.546 90.8799 174.315 91.6885 173.431C92.4971 172.546 93.6367 172.104 95.1074 172.104C96.5137 172.104 97.627 172.558 98.4473 173.466C99.2676 174.368 99.6777 175.587 99.6777 177.122ZM92.6025 177.122C92.6025 179.366 93.4316 180.488 95.0898 180.488C96.7305 180.488 97.5508 179.366 97.5508 177.122C97.5508 174.901 96.7246 173.791 95.0723 173.791C94.2051 173.791 93.5752 174.078 93.1826 174.652C92.7959 175.227 92.6025 176.05 92.6025 177.122ZM110.986 182H108.912V176.023C108.912 175.273 108.76 174.714 108.455 174.345C108.156 173.976 107.679 173.791 107.022 173.791C106.149 173.791 105.511 174.049 105.106 174.564C104.702 175.08 104.5 175.944 104.5 177.157V182H102.435V172.279H104.052L104.342 173.554H104.447C104.74 173.091 105.156 172.733 105.695 172.481C106.234 172.229 106.832 172.104 107.488 172.104C109.82 172.104 110.986 173.29 110.986 175.663V182ZM120.317 182L119.904 180.646H119.834C119.365 181.238 118.894 181.643 118.419 181.859C117.944 182.07 117.335 182.176 116.591 182.176C115.636 182.176 114.889 181.918 114.35 181.402C113.816 180.887 113.55 180.157 113.55 179.214C113.55 178.212 113.922 177.456 114.666 176.946C115.41 176.437 116.544 176.158 118.067 176.111L119.746 176.059V175.54C119.746 174.919 119.6 174.456 119.307 174.151C119.02 173.841 118.571 173.686 117.962 173.686C117.464 173.686 116.986 173.759 116.529 173.905C116.072 174.052 115.633 174.225 115.211 174.424L114.543 172.947C115.07 172.672 115.647 172.464 116.274 172.323C116.901 172.177 117.493 172.104 118.05 172.104C119.286 172.104 120.218 172.373 120.845 172.912C121.478 173.451 121.794 174.298 121.794 175.452V182H120.317ZM117.241 180.594C117.991 180.594 118.592 180.386 119.043 179.97C119.5 179.548 119.729 178.959 119.729 178.203V177.359L118.48 177.412C117.508 177.447 116.799 177.611 116.354 177.904C115.914 178.191 115.694 178.634 115.694 179.231C115.694 179.665 115.823 180.002 116.081 180.242C116.339 180.477 116.726 180.594 117.241 180.594ZM127.117 182H125.052V168.324H127.117V182ZM136.984 179.231C136.984 180.181 136.639 180.91 135.947 181.42C135.256 181.924 134.266 182.176 132.977 182.176C131.682 182.176 130.642 181.979 129.856 181.587V179.803C130.999 180.33 132.062 180.594 133.047 180.594C134.318 180.594 134.954 180.21 134.954 179.442C134.954 179.196 134.884 178.991 134.743 178.827C134.603 178.663 134.371 178.493 134.049 178.317C133.727 178.142 133.278 177.942 132.704 177.72C131.585 177.286 130.826 176.853 130.428 176.419C130.035 175.985 129.839 175.423 129.839 174.731C129.839 173.899 130.173 173.255 130.841 172.798C131.515 172.335 132.429 172.104 133.583 172.104C134.726 172.104 135.807 172.335 136.826 172.798L136.158 174.354C135.109 173.92 134.228 173.703 133.513 173.703C132.423 173.703 131.878 174.014 131.878 174.635C131.878 174.939 132.019 175.197 132.3 175.408C132.587 175.619 133.208 175.909 134.163 176.278C134.966 176.589 135.549 176.873 135.912 177.131C136.275 177.389 136.545 177.688 136.721 178.027C136.896 178.361 136.984 178.763 136.984 179.231Z" fill="#465366"/>
</g>
<defs>
<clipPath id="clip0">
<rect width="154" height="186" fill="white"/>
</clipPath>
</defs>
</svg>
