<svg width="118" height="186" viewBox="0 0 118 186" fill="none" xmlns="http://www.w3.org/2000/svg">
<g clip-path="url(#clip0)">
<g opacity="0.5">
<path fill-rule="evenodd" clip-rule="evenodd" d="M58.733 0C69.3381 10.3126 81.8809 14.989 98.252 14.989C98.252 17.5697 98.3033 20.2576 98.3561 23.0222C98.8525 49.0294 99.4785 81.8192 58.733 95.9411C17.9912 81.8193 18.6173 49.0282 19.1138 23.0222C19.1666 20.2576 19.2179 17.5696 19.2179 14.989C35.587 14.989 48.1317 10.3126 58.733 0ZM42.2932 49.0798L55.4544 62.2488L75.1551 42.5247L69.2655 36.6351L55.4466 50.454L48.1828 43.1902L42.2932 49.0798Z" fill="#465366"/>
</g>
<path d="M7.2793 157H5.21387V148.703C5.21387 147.713 5.2373 146.928 5.28418 146.348C5.14941 146.488 4.98242 146.644 4.7832 146.813C4.58984 146.983 3.93359 147.522 2.81445 148.431L1.77734 147.121L5.55664 144.15H7.2793V157ZM20.583 150.575C20.583 152.808 20.2227 154.466 19.502 155.55C18.7871 156.634 17.6914 157.176 16.2148 157.176C14.7852 157.176 13.7012 156.616 12.9629 155.497C12.2246 154.378 11.8555 152.737 11.8555 150.575C11.8555 148.308 12.2129 146.638 12.9277 145.565C13.6484 144.487 14.7441 143.948 16.2148 143.948C17.6504 143.948 18.7373 144.511 19.4756 145.636C20.2139 146.761 20.583 148.407 20.583 150.575ZM13.9473 150.575C13.9473 152.327 14.126 153.578 14.4834 154.328C14.8467 155.078 15.4238 155.453 16.2148 155.453C17.0059 155.453 17.583 155.072 17.9463 154.311C18.3154 153.549 18.5 152.304 18.5 150.575C18.5 148.853 18.3154 147.607 17.9463 146.84C17.583 146.066 17.0059 145.68 16.2148 145.68C15.4238 145.68 14.8467 146.058 14.4834 146.813C14.126 147.569 13.9473 148.823 13.9473 150.575ZM31.2412 150.575C31.2412 152.808 30.8809 154.466 30.1602 155.55C29.4453 156.634 28.3496 157.176 26.873 157.176C25.4434 157.176 24.3594 156.616 23.6211 155.497C22.8828 154.378 22.5137 152.737 22.5137 150.575C22.5137 148.308 22.8711 146.638 23.5859 145.565C24.3066 144.487 25.4023 143.948 26.873 143.948C28.3086 143.948 29.3955 144.511 30.1338 145.636C30.8721 146.761 31.2412 148.407 31.2412 150.575ZM24.6055 150.575C24.6055 152.327 24.7842 153.578 25.1416 154.328C25.5049 155.078 26.082 155.453 26.873 155.453C27.6641 155.453 28.2412 155.072 28.6045 154.311C28.9736 153.549 29.1582 152.304 29.1582 150.575C29.1582 148.853 28.9736 147.607 28.6045 146.84C28.2412 146.066 27.6641 145.68 26.873 145.68C26.082 145.68 25.5049 146.058 25.1416 146.813C24.7842 147.569 24.6055 148.823 24.6055 150.575ZM34.8506 148C34.8506 148.873 34.9355 149.523 35.1055 149.951C35.2754 150.379 35.5537 150.593 35.9404 150.593C36.7139 150.593 37.1006 149.729 37.1006 148C37.1006 146.271 36.7139 145.407 35.9404 145.407C35.5537 145.407 35.2754 145.621 35.1055 146.049C34.9355 146.477 34.8506 147.127 34.8506 148ZM38.8057 147.982C38.8057 149.33 38.5625 150.344 38.0762 151.023C37.5957 151.697 36.8838 152.034 35.9404 152.034C35.0498 152.034 34.3584 151.686 33.8662 150.988C33.3799 150.285 33.1367 149.283 33.1367 147.982C33.1367 145.305 34.0713 143.966 35.9404 143.966C36.8604 143.966 37.5664 144.314 38.0586 145.012C38.5566 145.703 38.8057 146.693 38.8057 147.982ZM43.2178 153.133C43.2178 154.006 43.3027 154.659 43.4727 155.093C43.6484 155.526 43.9297 155.743 44.3164 155.743C45.084 155.743 45.4678 154.873 45.4678 153.133C45.4678 151.416 45.084 150.558 44.3164 150.558C43.9297 150.558 43.6484 150.769 43.4727 151.19C43.3027 151.612 43.2178 152.26 43.2178 153.133ZM47.1729 153.133C47.1729 154.48 46.9297 155.491 46.4434 156.165C45.957 156.839 45.248 157.176 44.3164 157.176C43.4258 157.176 42.7344 156.83 42.2422 156.139C41.75 155.441 41.5039 154.439 41.5039 153.133C41.5039 150.455 42.4414 149.116 44.3164 149.116C45.2188 149.116 45.9189 149.462 46.417 150.153C46.9209 150.845 47.1729 151.838 47.1729 153.133ZM44.5625 144.15L37.4346 157H35.7295L42.8574 144.15H44.5625ZM62.4512 153.511C62.4512 154.653 62.0381 155.55 61.2119 156.2C60.3857 156.851 59.2461 157.176 57.793 157.176C56.3398 157.176 55.1504 156.95 54.2246 156.499V154.513C54.8105 154.788 55.4316 155.005 56.0879 155.163C56.75 155.321 57.3652 155.4 57.9336 155.4C58.7656 155.4 59.3779 155.242 59.7705 154.926C60.1689 154.609 60.3682 154.185 60.3682 153.651C60.3682 153.171 60.1865 152.764 59.8232 152.43C59.46 152.096 58.71 151.7 57.5732 151.243C56.4014 150.769 55.5752 150.227 55.0947 149.617C54.6143 149.008 54.374 148.275 54.374 147.42C54.374 146.348 54.7549 145.504 55.5166 144.889C56.2783 144.273 57.3008 143.966 58.584 143.966C59.8145 143.966 61.0391 144.235 62.2578 144.774L61.5898 146.488C60.4473 146.008 59.4277 145.768 58.5312 145.768C57.8516 145.768 57.3359 145.917 56.9844 146.216C56.6328 146.509 56.457 146.898 56.457 147.385C56.457 147.719 56.5273 148.006 56.668 148.246C56.8086 148.48 57.04 148.703 57.3623 148.914C57.6846 149.125 58.2646 149.403 59.1025 149.749C60.0459 150.142 60.7373 150.508 61.1768 150.848C61.6162 151.188 61.9385 151.571 62.1436 151.999C62.3486 152.427 62.4512 152.931 62.4512 153.511ZM69.3389 157.176C67.8271 157.176 66.6436 156.736 65.7881 155.857C64.9385 154.973 64.5137 153.757 64.5137 152.21C64.5137 150.622 64.9092 149.374 65.7002 148.466C66.4912 147.558 67.5781 147.104 68.9609 147.104C70.2441 147.104 71.2578 147.493 72.002 148.272C72.7461 149.052 73.1182 150.124 73.1182 151.489V152.605H66.6406C66.6699 153.549 66.9248 154.275 67.4053 154.785C67.8857 155.289 68.5625 155.541 69.4355 155.541C70.0098 155.541 70.543 155.488 71.0352 155.383C71.5332 155.271 72.0664 155.09 72.6348 154.838V156.517C72.1309 156.757 71.6211 156.927 71.1055 157.026C70.5898 157.126 70.001 157.176 69.3389 157.176ZM68.9609 148.668C68.3047 148.668 67.7773 148.876 67.3789 149.292C66.9863 149.708 66.752 150.314 66.6758 151.111H71.0879C71.0762 150.309 70.8828 149.702 70.5078 149.292C70.1328 148.876 69.6172 148.668 68.9609 148.668ZM80.7705 147.104C81.1865 147.104 81.5293 147.133 81.7988 147.191L81.5967 149.116C81.3037 149.046 80.999 149.011 80.6826 149.011C79.8564 149.011 79.1855 149.28 78.6699 149.819C78.1602 150.358 77.9053 151.059 77.9053 151.92V157H75.8398V147.279H77.457L77.7295 148.993H77.835C78.1572 148.413 78.5762 147.953 79.0918 147.613C79.6133 147.273 80.1729 147.104 80.7705 147.104ZM86.1992 157L82.5078 147.279H84.6875L86.665 152.931C87.0049 153.88 87.21 154.647 87.2803 155.233H87.3506C87.4033 154.812 87.6084 154.044 87.9658 152.931L89.9434 147.279H92.1406L88.4316 157H86.1992ZM96.0576 157H93.9922V147.279H96.0576V157ZM93.8691 144.704C93.8691 144.335 93.9688 144.051 94.168 143.852C94.373 143.652 94.6631 143.553 95.0381 143.553C95.4014 143.553 95.6826 143.652 95.8818 143.852C96.0869 144.051 96.1895 144.335 96.1895 144.704C96.1895 145.056 96.0869 145.334 95.8818 145.539C95.6826 145.738 95.4014 145.838 95.0381 145.838C94.6631 145.838 94.373 145.738 94.168 145.539C93.9688 145.334 93.8691 145.056 93.8691 144.704ZM103.314 157.176C101.844 157.176 100.725 156.748 99.957 155.893C99.1953 155.031 98.8145 153.798 98.8145 152.192C98.8145 150.558 99.2129 149.301 100.01 148.422C100.812 147.543 101.97 147.104 103.481 147.104C104.507 147.104 105.43 147.294 106.25 147.675L105.626 149.336C104.753 148.996 104.032 148.826 103.464 148.826C101.782 148.826 100.941 149.942 100.941 152.175C100.941 153.265 101.149 154.085 101.565 154.636C101.987 155.181 102.603 155.453 103.411 155.453C104.331 155.453 105.201 155.225 106.021 154.768V156.569C105.652 156.786 105.257 156.941 104.835 157.035C104.419 157.129 103.912 157.176 103.314 157.176ZM112.927 157.176C111.415 157.176 110.231 156.736 109.376 155.857C108.526 154.973 108.102 153.757 108.102 152.21C108.102 150.622 108.497 149.374 109.288 148.466C110.079 147.558 111.166 147.104 112.549 147.104C113.832 147.104 114.846 147.493 115.59 148.272C116.334 149.052 116.706 150.124 116.706 151.489V152.605H110.229C110.258 153.549 110.513 154.275 110.993 154.785C111.474 155.289 112.15 155.541 113.023 155.541C113.598 155.541 114.131 155.488 114.623 155.383C115.121 155.271 115.654 155.09 116.223 154.838V156.517C115.719 156.757 115.209 156.927 114.693 157.026C114.178 157.126 113.589 157.176 112.927 157.176ZM112.549 148.668C111.893 148.668 111.365 148.876 110.967 149.292C110.574 149.708 110.34 150.314 110.264 151.111H114.676C114.664 150.309 114.471 149.702 114.096 149.292C113.721 148.876 113.205 148.668 112.549 148.668ZM30.4326 182H28.1475L25.9678 174.336C25.874 174.002 25.7568 173.521 25.6162 172.895C25.4756 172.262 25.3906 171.822 25.3613 171.576C25.3027 171.951 25.2061 172.438 25.0713 173.035C24.9424 173.633 24.834 174.078 24.7461 174.371L22.6191 182H20.334L18.6729 175.566L16.9854 169.15H19.1299L20.9668 176.639C21.2539 177.84 21.459 178.9 21.582 179.82C21.6465 179.322 21.7432 178.766 21.8721 178.15C22.001 177.535 22.1182 177.037 22.2236 176.656L24.3154 169.15H26.3984L28.543 176.691C28.748 177.389 28.9648 178.432 29.1934 179.82C29.2812 178.982 29.4922 177.916 29.8262 176.621L31.6543 169.15H33.7812L30.4326 182ZM41.8467 182L41.4336 180.646H41.3633C40.8945 181.238 40.4229 181.643 39.9482 181.859C39.4736 182.07 38.8643 182.176 38.1201 182.176C37.165 182.176 36.418 181.918 35.8789 181.402C35.3457 180.887 35.0791 180.157 35.0791 179.214C35.0791 178.212 35.4512 177.456 36.1953 176.946C36.9395 176.437 38.0732 176.158 39.5967 176.111L41.2754 176.059V175.54C41.2754 174.919 41.1289 174.456 40.8359 174.151C40.5488 173.841 40.1006 173.686 39.4912 173.686C38.9932 173.686 38.5156 173.759 38.0586 173.905C37.6016 174.052 37.1621 174.225 36.7402 174.424L36.0723 172.947C36.5996 172.672 37.1768 172.464 37.8037 172.323C38.4307 172.177 39.0225 172.104 39.5791 172.104C40.8154 172.104 41.7471 172.373 42.374 172.912C43.0068 173.451 43.3232 174.298 43.3232 175.452V182H41.8467ZM38.7705 180.594C39.5205 180.594 40.1211 180.386 40.5723 179.97C41.0293 179.548 41.2578 178.959 41.2578 178.203V177.359L40.0098 177.412C39.0371 177.447 38.3281 177.611 37.8828 177.904C37.4434 178.191 37.2236 178.634 37.2236 179.231C37.2236 179.665 37.3525 180.002 37.6104 180.242C37.8682 180.477 38.2549 180.594 38.7705 180.594ZM51.5117 172.104C51.9277 172.104 52.2705 172.133 52.54 172.191L52.3379 174.116C52.0449 174.046 51.7402 174.011 51.4238 174.011C50.5977 174.011 49.9268 174.28 49.4111 174.819C48.9014 175.358 48.6465 176.059 48.6465 176.92V182H46.5811V172.279H48.1982L48.4707 173.993H48.5762C48.8984 173.413 49.3174 172.953 49.833 172.613C50.3545 172.273 50.9141 172.104 51.5117 172.104ZM59.6562 172.104C60.0723 172.104 60.415 172.133 60.6846 172.191L60.4824 174.116C60.1895 174.046 59.8848 174.011 59.5684 174.011C58.7422 174.011 58.0713 174.28 57.5557 174.819C57.0459 175.358 56.791 176.059 56.791 176.92V182H54.7256V172.279H56.3428L56.6152 173.993H56.7207C57.043 173.413 57.4619 172.953 57.9775 172.613C58.499 172.273 59.0586 172.104 59.6562 172.104ZM68.9521 182L68.5391 180.646H68.4688C68 181.238 67.5283 181.643 67.0537 181.859C66.5791 182.07 65.9697 182.176 65.2256 182.176C64.2705 182.176 63.5234 181.918 62.9844 181.402C62.4512 180.887 62.1846 180.157 62.1846 179.214C62.1846 178.212 62.5566 177.456 63.3008 176.946C64.0449 176.437 65.1787 176.158 66.7021 176.111L68.3809 176.059V175.54C68.3809 174.919 68.2344 174.456 67.9414 174.151C67.6543 173.841 67.2061 173.686 66.5967 173.686C66.0986 173.686 65.6211 173.759 65.1641 173.905C64.707 174.052 64.2676 174.225 63.8457 174.424L63.1777 172.947C63.7051 172.672 64.2822 172.464 64.9092 172.323C65.5361 172.177 66.1279 172.104 66.6846 172.104C67.9209 172.104 68.8525 172.373 69.4795 172.912C70.1123 173.451 70.4287 174.298 70.4287 175.452V182H68.9521ZM65.876 180.594C66.626 180.594 67.2266 180.386 67.6777 179.97C68.1348 179.548 68.3633 178.959 68.3633 178.203V177.359L67.1152 177.412C66.1426 177.447 65.4336 177.611 64.9883 177.904C64.5488 178.191 64.3291 178.634 64.3291 179.231C64.3291 179.665 64.458 180.002 64.7158 180.242C64.9736 180.477 65.3604 180.594 65.876 180.594ZM82.2383 182H80.1641V176.023C80.1641 175.273 80.0117 174.714 79.707 174.345C79.4082 173.976 78.9307 173.791 78.2744 173.791C77.4014 173.791 76.7627 174.049 76.3584 174.564C75.9541 175.08 75.752 175.944 75.752 177.157V182H73.6865V172.279H75.3037L75.5938 173.554H75.6992C75.9922 173.091 76.4082 172.733 76.9473 172.481C77.4863 172.229 78.084 172.104 78.7402 172.104C81.0723 172.104 82.2383 173.29 82.2383 175.663V182ZM89.1084 180.506C89.6123 180.506 90.1162 180.427 90.6201 180.269V181.824C90.3916 181.924 90.0957 182.006 89.7324 182.07C89.375 182.141 89.0029 182.176 88.6162 182.176C86.6592 182.176 85.6807 181.145 85.6807 179.082V173.844H84.3535V172.93L85.7773 172.174L86.4805 170.117H87.7549V172.279H90.5234V173.844H87.7549V179.047C87.7549 179.545 87.8779 179.914 88.124 180.154C88.376 180.389 88.7041 180.506 89.1084 180.506ZM91.4697 172.279H93.7197L95.6973 177.79C95.9961 178.575 96.1953 179.313 96.2949 180.005H96.3652C96.418 179.683 96.5146 179.293 96.6553 178.836C96.7959 178.373 97.54 176.188 98.8877 172.279H101.12L96.9629 183.292C96.207 185.313 94.9473 186.324 93.1836 186.324C92.7266 186.324 92.2812 186.274 91.8477 186.175V184.54C92.1582 184.61 92.5127 184.646 92.9111 184.646C93.9072 184.646 94.6074 184.068 95.0117 182.914L95.3721 182L91.4697 172.279Z" fill="#465366"/>
</g>
<defs>
<clipPath id="clip0">
<rect width="118" height="186" fill="white"/>
</clipPath>
</defs>
</svg>
