<svg width="118" height="186" viewBox="0 0 118 186" fill="none" xmlns="http://www.w3.org/2000/svg">
<g clip-path="url(#clip0)">
<g opacity="0.5">
<path fill-rule="evenodd" clip-rule="evenodd" d="M61.7987 0C68.0013 0 73.0451 5.23403 73.0451 11.4345C73.0451 17.6371 67.9992 22.8775 61.7966 22.8775C55.594 22.8775 50.3643 17.6371 50.3643 11.4345C50.3643 5.23189 55.5962 0 61.7987 0ZM44.7411 36.9269V34.1153C44.7561 29.9543 46.3202 25.948 49.1284 22.8775C52.376 26.4501 56.9771 28.4911 61.8051 28.5007C66.5764 28.4877 71.1162 26.4425 74.2873 22.8775C77.0932 25.949 78.6549 29.9551 78.6682 34.1153V36.9269C78.6688 37.6727 78.3727 38.3882 77.8454 38.9156C77.318 39.443 76.6025 39.739 75.8566 39.7384H47.5612C46.8139 39.7413 46.0962 39.4463 45.567 38.9186C45.0377 38.391 44.7405 37.6742 44.7411 36.9269ZM23.8285 57.5722C22.4451 54.7983 19.0779 53.6669 16.3003 55.0429L12.5629 56.8987C11.8933 57.2311 11.3836 57.8163 11.1461 58.5251C10.9087 59.2339 10.963 60.008 11.2971 60.6767L28.1666 94.4157C28.8595 95.8019 30.5429 96.3669 31.9318 95.6793L35.6285 93.8469C36.9651 93.1818 37.9823 92.0125 38.456 90.5968C38.9296 89.181 38.8208 87.635 38.1536 86.2995L23.8285 57.5722ZM97.2417 47.1597C99.1715 45.0662 102.364 44.7518 104.665 46.4285C105.874 47.3231 106.678 48.6615 106.899 50.149C107.12 51.6364 106.741 53.1509 105.845 54.3587L89.3522 77.976C86.1593 82.2153 81.1639 84.713 75.8566 84.7238H43.6592L27.677 52.676L31.7458 49.0947L31.8292 49.1631C34.3329 47.179 36.8002 45.708 40.4606 44.8527C47.0545 43.3283 53.5649 45.2141 57.9159 49.1289C58.0959 49.2859 58.265 49.4409 58.4282 49.5904C59.2692 50.3609 59.9501 50.9848 61.1231 50.9848H75.8545C78.9601 50.9848 81.4776 53.5023 81.4776 56.6079C81.4776 59.7135 78.9601 62.2311 75.8545 62.2311H64.6081C63.0553 62.2311 61.7966 63.4899 61.7966 65.0427C61.7966 66.5955 63.0553 67.8543 64.6081 67.8543H77.7103C78.7772 67.8543 80.802 67.1786 81.871 66.054L97.2417 47.1597Z" fill="#465366"/>
</g>
<path d="M30.8721 150.558C30.8721 152.649 30.3477 154.275 29.2988 155.436C28.2559 156.596 26.7764 157.176 24.8604 157.176C22.9209 157.176 21.4297 156.602 20.3867 155.453C19.3496 154.299 18.8311 152.661 18.8311 150.54C18.8311 148.419 19.3525 146.79 20.3955 145.653C21.4443 144.517 22.9385 143.948 24.8779 143.948C26.7881 143.948 28.2646 144.525 29.3076 145.68C30.3506 146.834 30.8721 148.46 30.8721 150.558ZM21.0635 150.558C21.0635 152.14 21.3828 153.341 22.0215 154.161C22.6602 154.976 23.6064 155.383 24.8604 155.383C26.1084 155.383 27.0488 154.979 27.6816 154.17C28.3203 153.361 28.6396 152.157 28.6396 150.558C28.6396 148.981 28.3232 147.786 27.6904 146.972C27.0635 146.157 26.126 145.75 24.8779 145.75C23.6182 145.75 22.666 146.157 22.0215 146.972C21.3828 147.786 21.0635 148.981 21.0635 150.558ZM42.3389 157H40.2646V151.023C40.2646 150.273 40.1123 149.714 39.8076 149.345C39.5088 148.976 39.0312 148.791 38.375 148.791C37.502 148.791 36.8633 149.049 36.459 149.564C36.0547 150.08 35.8525 150.944 35.8525 152.157V157H33.7871V147.279H35.4043L35.6943 148.554H35.7998C36.0928 148.091 36.5088 147.733 37.0479 147.481C37.5869 147.229 38.1846 147.104 38.8408 147.104C41.1729 147.104 42.3389 148.29 42.3389 150.663V157ZM49.833 157.176C48.3213 157.176 47.1377 156.736 46.2822 155.857C45.4326 154.973 45.0078 153.757 45.0078 152.21C45.0078 150.622 45.4033 149.374 46.1943 148.466C46.9854 147.558 48.0723 147.104 49.4551 147.104C50.7383 147.104 51.752 147.493 52.4961 148.272C53.2402 149.052 53.6123 150.124 53.6123 151.489V152.605H47.1348C47.1641 153.549 47.4189 154.275 47.8994 154.785C48.3799 155.289 49.0566 155.541 49.9297 155.541C50.5039 155.541 51.0371 155.488 51.5293 155.383C52.0273 155.271 52.5605 155.09 53.1289 154.838V156.517C52.625 156.757 52.1152 156.927 51.5996 157.026C51.084 157.126 50.4951 157.176 49.833 157.176ZM49.4551 148.668C48.7988 148.668 48.2715 148.876 47.873 149.292C47.4805 149.708 47.2461 150.314 47.1699 151.111H51.582C51.5703 150.309 51.377 149.702 51.002 149.292C50.627 148.876 50.1113 148.668 49.4551 148.668ZM69.0137 153.511C69.0137 154.653 68.6006 155.55 67.7744 156.2C66.9482 156.851 65.8086 157.176 64.3555 157.176C62.9023 157.176 61.7129 156.95 60.7871 156.499V154.513C61.373 154.788 61.9941 155.005 62.6504 155.163C63.3125 155.321 63.9277 155.4 64.4961 155.4C65.3281 155.4 65.9404 155.242 66.333 154.926C66.7314 154.609 66.9307 154.185 66.9307 153.651C66.9307 153.171 66.749 152.764 66.3857 152.43C66.0225 152.096 65.2725 151.7 64.1357 151.243C62.9639 150.769 62.1377 150.227 61.6572 149.617C61.1768 149.008 60.9365 148.275 60.9365 147.42C60.9365 146.348 61.3174 145.504 62.0791 144.889C62.8408 144.273 63.8633 143.966 65.1465 143.966C66.377 143.966 67.6016 144.235 68.8203 144.774L68.1523 146.488C67.0098 146.008 65.9902 145.768 65.0938 145.768C64.4141 145.768 63.8984 145.917 63.5469 146.216C63.1953 146.509 63.0195 146.898 63.0195 147.385C63.0195 147.719 63.0898 148.006 63.2305 148.246C63.3711 148.48 63.6025 148.703 63.9248 148.914C64.2471 149.125 64.8271 149.403 65.665 149.749C66.6084 150.142 67.2998 150.508 67.7393 150.848C68.1787 151.188 68.501 151.571 68.7061 151.999C68.9111 152.427 69.0137 152.931 69.0137 153.511ZM75.2773 155.506C75.7812 155.506 76.2852 155.427 76.7891 155.269V156.824C76.5605 156.924 76.2646 157.006 75.9014 157.07C75.5439 157.141 75.1719 157.176 74.7852 157.176C72.8281 157.176 71.8496 156.145 71.8496 154.082V148.844H70.5225V147.93L71.9463 147.174L72.6494 145.117H73.9238V147.279H76.6924V148.844H73.9238V154.047C73.9238 154.545 74.0469 154.914 74.293 155.154C74.5449 155.389 74.873 155.506 75.2773 155.506ZM87.7373 152.122C87.7373 153.71 87.3301 154.949 86.5156 155.84C85.7012 156.73 84.5674 157.176 83.1143 157.176C82.2061 157.176 81.4033 156.971 80.7061 156.561C80.0088 156.15 79.4727 155.562 79.0977 154.794C78.7227 154.026 78.5352 153.136 78.5352 152.122C78.5352 150.546 78.9395 149.315 79.748 148.431C80.5566 147.546 81.6963 147.104 83.167 147.104C84.5732 147.104 85.6865 147.558 86.5068 148.466C87.3271 149.368 87.7373 150.587 87.7373 152.122ZM80.6621 152.122C80.6621 154.366 81.4912 155.488 83.1494 155.488C84.79 155.488 85.6104 154.366 85.6104 152.122C85.6104 149.901 84.7842 148.791 83.1318 148.791C82.2646 148.791 81.6348 149.078 81.2422 149.652C80.8555 150.227 80.6621 151.05 80.6621 152.122ZM95.4248 157.176C94.1943 157.176 93.2393 156.733 92.5596 155.849H92.4365C92.5186 156.669 92.5596 157.167 92.5596 157.343V161.324H90.4941V147.279H92.1641C92.2109 147.461 92.3076 147.895 92.4541 148.58H92.5596C93.2041 147.596 94.1709 147.104 95.46 147.104C96.6729 147.104 97.6162 147.543 98.29 148.422C98.9697 149.301 99.3096 150.534 99.3096 152.122C99.3096 153.71 98.9639 154.949 98.2725 155.84C97.5869 156.73 96.6377 157.176 95.4248 157.176ZM94.9238 148.791C94.1035 148.791 93.5029 149.031 93.1221 149.512C92.7471 149.992 92.5596 150.76 92.5596 151.814V152.122C92.5596 153.306 92.7471 154.164 93.1221 154.697C93.4971 155.225 94.1094 155.488 94.959 155.488C95.6738 155.488 96.2246 155.195 96.6113 154.609C96.998 154.023 97.1914 153.188 97.1914 152.104C97.1914 151.015 96.998 150.191 96.6113 149.635C96.2305 149.072 95.668 148.791 94.9238 148.791ZM7.60742 182L3.88086 171.269H3.81055C3.91016 172.862 3.95996 174.356 3.95996 175.751V182H2.05273V169.15H5.01465L8.58301 179.372H8.63574L12.3096 169.15H15.2803V182H13.2588V175.646C13.2588 175.007 13.2734 174.175 13.3027 173.149C13.3379 172.124 13.3672 171.503 13.3906 171.286H13.3203L9.46191 182H7.60742ZM24.9014 182L24.4883 180.646H24.418C23.9492 181.238 23.4775 181.643 23.0029 181.859C22.5283 182.07 21.9189 182.176 21.1748 182.176C20.2197 182.176 19.4727 181.918 18.9336 181.402C18.4004 180.887 18.1338 180.157 18.1338 179.214C18.1338 178.212 18.5059 177.456 19.25 176.946C19.9941 176.437 21.1279 176.158 22.6514 176.111L24.3301 176.059V175.54C24.3301 174.919 24.1836 174.456 23.8906 174.151C23.6035 173.841 23.1553 173.686 22.5459 173.686C22.0479 173.686 21.5703 173.759 21.1133 173.905C20.6562 174.052 20.2168 174.225 19.7949 174.424L19.127 172.947C19.6543 172.672 20.2314 172.464 20.8584 172.323C21.4854 172.177 22.0771 172.104 22.6338 172.104C23.8701 172.104 24.8018 172.373 25.4287 172.912C26.0615 173.451 26.3779 174.298 26.3779 175.452V182H24.9014ZM21.8252 180.594C22.5752 180.594 23.1758 180.386 23.627 179.97C24.084 179.548 24.3125 178.959 24.3125 178.203V177.359L23.0645 177.412C22.0918 177.447 21.3828 177.611 20.9375 177.904C20.498 178.191 20.2783 178.634 20.2783 179.231C20.2783 179.665 20.4072 180.002 20.665 180.242C20.9229 180.477 21.3096 180.594 21.8252 180.594ZM31.7012 182H29.6357V172.279H31.7012V182ZM29.5127 169.704C29.5127 169.335 29.6123 169.051 29.8115 168.852C30.0166 168.652 30.3066 168.553 30.6816 168.553C31.0449 168.553 31.3262 168.652 31.5254 168.852C31.7305 169.051 31.833 169.335 31.833 169.704C31.833 170.056 31.7305 170.334 31.5254 170.539C31.3262 170.738 31.0449 170.838 30.6816 170.838C30.3066 170.838 30.0166 170.738 29.8115 170.539C29.6123 170.334 29.5127 170.056 29.5127 169.704ZM43.5898 182H41.5156V176.023C41.5156 175.273 41.3633 174.714 41.0586 174.345C40.7598 173.976 40.2822 173.791 39.626 173.791C38.7529 173.791 38.1143 174.049 37.71 174.564C37.3057 175.08 37.1035 175.944 37.1035 177.157V182H35.0381V172.279H36.6553L36.9453 173.554H37.0508C37.3438 173.091 37.7598 172.733 38.2988 172.481C38.8379 172.229 39.4355 172.104 40.0918 172.104C42.4238 172.104 43.5898 173.29 43.5898 175.663V182ZM50.46 180.506C50.9639 180.506 51.4678 180.427 51.9717 180.269V181.824C51.7432 181.924 51.4473 182.006 51.084 182.07C50.7266 182.141 50.3545 182.176 49.9678 182.176C48.0107 182.176 47.0322 181.145 47.0322 179.082V173.844H45.7051V172.93L47.1289 172.174L47.832 170.117H49.1064V172.279H51.875V173.844H49.1064V179.047C49.1064 179.545 49.2295 179.914 49.4756 180.154C49.7275 180.389 50.0557 180.506 50.46 180.506ZM58.543 182.176C57.0312 182.176 55.8477 181.736 54.9922 180.857C54.1426 179.973 53.7178 178.757 53.7178 177.21C53.7178 175.622 54.1133 174.374 54.9043 173.466C55.6953 172.558 56.7822 172.104 58.165 172.104C59.4482 172.104 60.4619 172.493 61.2061 173.272C61.9502 174.052 62.3223 175.124 62.3223 176.489V177.605H55.8447C55.874 178.549 56.1289 179.275 56.6094 179.785C57.0898 180.289 57.7666 180.541 58.6396 180.541C59.2139 180.541 59.7471 180.488 60.2393 180.383C60.7373 180.271 61.2705 180.09 61.8389 179.838V181.517C61.335 181.757 60.8252 181.927 60.3096 182.026C59.7939 182.126 59.2051 182.176 58.543 182.176ZM58.165 173.668C57.5088 173.668 56.9814 173.876 56.583 174.292C56.1904 174.708 55.9561 175.314 55.8799 176.111H60.292C60.2803 175.309 60.0869 174.702 59.7119 174.292C59.3369 173.876 58.8213 173.668 58.165 173.668ZM73.5957 182H71.5215V176.023C71.5215 175.273 71.3691 174.714 71.0645 174.345C70.7656 173.976 70.2881 173.791 69.6318 173.791C68.7588 173.791 68.1201 174.049 67.7158 174.564C67.3115 175.08 67.1094 175.944 67.1094 177.157V182H65.0439V172.279H66.6611L66.9512 173.554H67.0566C67.3496 173.091 67.7656 172.733 68.3047 172.481C68.8438 172.229 69.4414 172.104 70.0977 172.104C72.4297 172.104 73.5957 173.29 73.5957 175.663V182ZM82.9268 182L82.5137 180.646H82.4434C81.9746 181.238 81.5029 181.643 81.0283 181.859C80.5537 182.07 79.9443 182.176 79.2002 182.176C78.2451 182.176 77.498 181.918 76.959 181.402C76.4258 180.887 76.1592 180.157 76.1592 179.214C76.1592 178.212 76.5312 177.456 77.2754 176.946C78.0195 176.437 79.1533 176.158 80.6768 176.111L82.3555 176.059V175.54C82.3555 174.919 82.209 174.456 81.916 174.151C81.6289 173.841 81.1807 173.686 80.5713 173.686C80.0732 173.686 79.5957 173.759 79.1387 173.905C78.6816 174.052 78.2422 174.225 77.8203 174.424L77.1523 172.947C77.6797 172.672 78.2568 172.464 78.8838 172.323C79.5107 172.177 80.1025 172.104 80.6592 172.104C81.8955 172.104 82.8271 172.373 83.4541 172.912C84.0869 173.451 84.4033 174.298 84.4033 175.452V182H82.9268ZM79.8506 180.594C80.6006 180.594 81.2012 180.386 81.6523 179.97C82.1094 179.548 82.3379 178.959 82.3379 178.203V177.359L81.0898 177.412C80.1172 177.447 79.4082 177.611 78.9629 177.904C78.5234 178.191 78.3037 178.634 78.3037 179.231C78.3037 179.665 78.4326 180.002 78.6904 180.242C78.9482 180.477 79.335 180.594 79.8506 180.594ZM96.2129 182H94.1387V176.023C94.1387 175.273 93.9863 174.714 93.6816 174.345C93.3828 173.976 92.9053 173.791 92.249 173.791C91.376 173.791 90.7373 174.049 90.333 174.564C89.9287 175.08 89.7266 175.944 89.7266 177.157V182H87.6611V172.279H89.2783L89.5684 173.554H89.6738C89.9668 173.091 90.3828 172.733 90.9219 172.481C91.4609 172.229 92.0586 172.104 92.7148 172.104C95.0469 172.104 96.2129 173.29 96.2129 175.663V182ZM103.382 182.176C101.911 182.176 100.792 181.748 100.024 180.893C99.2627 180.031 98.8818 178.798 98.8818 177.192C98.8818 175.558 99.2803 174.301 100.077 173.422C100.88 172.543 102.037 172.104 103.549 172.104C104.574 172.104 105.497 172.294 106.317 172.675L105.693 174.336C104.82 173.996 104.1 173.826 103.531 173.826C101.85 173.826 101.009 174.942 101.009 177.175C101.009 178.265 101.217 179.085 101.633 179.636C102.055 180.181 102.67 180.453 103.479 180.453C104.398 180.453 105.269 180.225 106.089 179.768V181.569C105.72 181.786 105.324 181.941 104.902 182.035C104.486 182.129 103.979 182.176 103.382 182.176ZM112.994 182.176C111.482 182.176 110.299 181.736 109.443 180.857C108.594 179.973 108.169 178.757 108.169 177.21C108.169 175.622 108.564 174.374 109.355 173.466C110.146 172.558 111.233 172.104 112.616 172.104C113.899 172.104 114.913 172.493 115.657 173.272C116.401 174.052 116.773 175.124 116.773 176.489V177.605H110.296C110.325 178.549 110.58 179.275 111.061 179.785C111.541 180.289 112.218 180.541 113.091 180.541C113.665 180.541 114.198 180.488 114.69 180.383C115.188 180.271 115.722 180.09 116.29 179.838V181.517C115.786 181.757 115.276 181.927 114.761 182.026C114.245 182.126 113.656 182.176 112.994 182.176ZM112.616 173.668C111.96 173.668 111.433 173.876 111.034 174.292C110.642 174.708 110.407 175.314 110.331 176.111H114.743C114.731 175.309 114.538 174.702 114.163 174.292C113.788 173.876 113.272 173.668 112.616 173.668Z" fill="#465366"/>
</g>
<defs>
<clipPath id="clip0">
<rect width="118" height="186" fill="white"/>
</clipPath>
</defs>
</svg>
