<svg width="201" height="48" viewBox="0 0 201 48" fill="none" xmlns="http://www.w3.org/2000/svg">
<path fill-rule="evenodd" clip-rule="evenodd" d="M15.7302 8.37182L15.7073 8.3846L21.8604 2.24162C24.7796 -0.67191 29.4816 -0.750916 32.497 2.0629L49.5524 18.0203C46.1302 21.4295 40.6531 21.608 37.0162 18.4289L28.2653 10.7525L9.60513 29.4127V44.8697C9.60513 46.5336 8.25627 47.8825 6.59236 47.8825H3.01789C2.21886 47.8825 1.45255 47.5651 0.887546 47.0001C0.322542 46.4351 0.00512695 45.6687 0.00512695 44.8697V24.0969L15.7302 8.37182ZM20.1447 33.7246C20.1447 31.9242 21.6043 30.4646 23.4047 30.4646H30.5341C32.3345 30.4646 33.7941 31.9242 33.7941 33.7246V44.6072C33.7941 46.4076 32.3345 47.8672 30.5341 47.8672H23.4047C21.6043 47.8672 20.1447 46.4076 20.1447 44.6072V33.7246ZM73.0979 36.8832H63.2272V47.6066H56.88V21.564H63.2272V31.7768H73.0979V21.564H79.4451V47.6066H73.0979V36.8832ZM96.3268 47.867C88.943 47.867 82.9277 42.3368 82.9277 34.5087C82.9277 26.6806 88.9379 21.1862 96.3268 21.1862C103.716 21.1862 109.649 26.6806 109.649 34.5087C109.649 42.3368 103.711 47.867 96.3268 47.867ZM96.3268 42.0764C100.483 42.0764 103.19 39.0687 103.19 34.5036C103.19 29.9385 100.483 26.9308 96.3268 26.9308C92.1702 26.9308 89.423 29.8619 89.423 34.5036C89.423 39.1453 92.0936 42.0764 96.3268 42.0764ZM113.178 21.5538H120.674L127.986 39.5896L135.222 21.5538H142.683V47.5964H136.33V31.9708L130.504 47.5964H125.397L119.535 31.9351V47.5964H113.178V21.5538ZM153.585 21.5538H147.237V47.5964H153.585V21.5538ZM158.186 21.5538H175.144V26.6602H164.533V32.1547H172.473V37.0926H164.533V47.6321H158.186V21.5538ZM183.646 21.5538H176.441L185.459 38.9972V47.6066H191.816V38.9972L200.849 21.5538H193.7L188.691 32.4662L183.646 21.5538Z" fill="white"/>
</svg>
