<svg width="47" height="31" viewBox="0 0 47 31" fill="none" xmlns="http://www.w3.org/2000/svg">
<path fill-rule="evenodd" clip-rule="evenodd" d="M4.98875 13.1953C7.74388 7.26208 13.7401 3.13446 20.6791 3.13446C21.4745 3.13446 22.1236 2.49321 22.1236 1.68658C22.1236 0.888957 21.4745 0.246582 20.6791 0.246582C9.55062 0.246582 0.5 9.32983 0.5 20.4977C0.5 20.5414 0.505655 20.5839 0.511329 20.6265C0.513248 20.6409 0.515169 20.6553 0.516875 20.6698C0.50675 20.851 0.5 21.0343 0.5 21.2177C0.5 26.4028 4.70188 30.6193 9.86788 30.6193C15.0339 30.6193 19.2369 26.4028 19.2369 21.2177C19.2369 16.0326 15.0339 11.8161 9.86788 11.8161C8.08138 11.8161 6.41075 12.3212 4.98875 13.1953ZM29.5002 13.1897C32.2531 7.25871 38.2449 3.13446 45.1816 3.13446C45.9849 3.13446 46.625 2.49321 46.625 1.68658C46.625 0.888957 45.9849 0.246582 45.1816 0.246582C34.0531 0.246582 25.0014 9.32983 25.0014 20.4977C25.0014 20.5411 25.007 20.5827 25.0126 20.6247C25.0145 20.6393 25.0165 20.6539 25.0182 20.6687C25.0081 20.851 25.0014 21.0332 25.0014 21.2177C25.0014 26.4028 29.2033 30.6193 34.3704 30.6193C39.5364 30.6193 43.7461 26.4028 43.7461 21.2177C43.7461 16.0326 39.5364 11.8161 34.3704 11.8161C32.5872 11.8161 30.92 12.319 29.5002 13.1897Z" fill="#4A90E2"/>
</svg>
