<svg width="24" height="22" viewBox="0 0 24 22" fill="none" xmlns="http://www.w3.org/2000/svg">
<path fill-rule="evenodd" clip-rule="evenodd" d="M21.5761 20.5146H2.42408C1.50608 20.5146 0.762451 19.8633 0.762451 19.06V1.69227C0.762451 0.890145 1.50608 0.23877 2.42408 0.23877H21.5761C22.493 0.23877 23.2366 0.890145 23.2366 1.69227V19.06C23.2366 19.8633 22.493 20.5146 21.5761 20.5146ZM4.6572 17.1745H7.96695V8.02039H4.6572V17.1745ZM6.33458 3.60814C5.2017 3.60814 4.46258 4.29102 4.46258 5.18989C4.46258 6.06739 5.18033 6.77164 6.2907 6.77164H6.31208C7.46633 6.77164 8.18408 6.06739 8.18408 5.18989C8.16383 4.29102 7.46633 3.60814 6.33458 3.60814ZM19.901 11.9264C19.901 9.11389 18.2675 7.80552 16.0906 7.80552C14.3333 7.80552 13.5481 8.69314 13.1082 9.31752V8.02039H9.79845C9.84233 8.87989 9.79845 17.1745 9.79845 17.1745H13.1082V12.0625C13.1082 11.7903 13.1296 11.5158 13.2173 11.3211C13.4558 10.7744 14.0015 10.2085 14.915 10.2085C16.1131 10.2085 16.5912 11.0478 16.5912 12.2785V17.1745H19.901V11.9264ZM13.0857 9.34789C13.0925 9.33777 13.1015 9.32764 13.1082 9.31752V9.34789H13.0857Z" fill="white"/>
</svg>
