<svg width="252" height="60" viewBox="0 0 252 60" fill="none" xmlns="http://www.w3.org/2000/svg">
<path d="M25.1809 41.3408C25.1809 39.5404 26.6404 38.0808 28.4409 38.0808H38.9826C40.783 38.0808 42.2426 39.5404 42.2426 41.3408V56.574C42.2426 58.3745 40.783 59.834 38.9826 59.834H28.4409C26.6404 59.834 25.1809 58.3745 25.1809 56.574V41.3408Z" fill="#465366"/>
<path d="M40.6213 2.79574C36.8671 -0.821781 30.9087 -0.770708 27.217 2.91063L0.00640869 30.1213V56.0872C0.00640869 57.086 0.403178 58.0439 1.10943 58.7502C1.81569 59.4564 2.77357 59.8532 3.77237 59.8532H8.24045C10.3203 59.8532 12.0064 58.1671 12.0064 56.0872V36.7659L43.3341 5.43829L40.6213 2.79574Z" fill="#465366"/>
<path d="M19.6341 10.4808C25.9532 6.95106 35.0426 13.1872 35.0426 13.1872L46.2702 23.0362C50.8163 27.01 57.6627 26.7869 61.9404 22.5255L40.6213 2.57872C36.852 -0.938554 30.9745 -0.839796 27.3256 2.80212L19.6341 10.4808Z" fill="#465366"/>
<path d="M91.3724 46.1042H79.0341V59.5085H71.1V26.9553H79.0341V39.7213H91.3724V26.9553H99.3064V59.5085H91.3724V46.1042Z" fill="#465366"/>
<path fill-rule="evenodd" clip-rule="evenodd" d="M103.66 43.1362C103.66 52.9213 111.179 59.834 120.409 59.834C129.638 59.834 137.062 52.9213 137.062 43.1362C137.062 33.3511 129.645 26.483 120.409 26.483C111.172 26.483 103.66 33.3511 103.66 43.1362ZM128.987 43.1298C128.987 48.8362 125.604 52.5957 120.409 52.5957C115.117 52.5957 111.779 48.9319 111.779 43.1298C111.779 37.3277 115.213 33.6638 120.409 33.6638C125.604 33.6638 128.987 37.4234 128.987 43.1298Z" fill="#465366"/>
<path d="M141.472 26.9425H150.843L159.983 49.4872L169.028 26.9425H178.353V59.4957H170.413V39.9638L163.13 59.4957H156.747L149.419 39.9191V59.4957H141.472V26.9425Z" fill="#465366"/>
<path d="M184.047 26.9425H191.981V59.4957H184.047V26.9425Z" fill="#465366"/>
<path d="M197.732 26.9425H218.93V33.3255H205.666V40.1936H215.592V46.366H205.666V59.5404H197.732V26.9425Z" fill="#465366"/>
<path d="M220.551 26.9425H229.557L235.864 40.583L242.126 26.9425H251.062L239.77 48.7468V59.5085H231.823V48.7468L220.551 26.9425Z" fill="#465366"/>
</svg>
